<svg width="365" height="285" viewBox="0 0 365 285" fill="none" xmlns="http://www.w3.org/2000/svg">
<path d="M76.233 91.912C66.8786 96.6783 58.4787 103.092 51.5131 110.786C44.5475 118.48 39.1525 127.305 35.6362 136.756C32.1198 146.207 30.551 156.099 31.0193 165.868C31.4876 175.637 33.9838 185.091 38.3654 193.69C42.747 202.29 48.9282 209.866 56.5561 215.987C64.1839 222.108 73.1091 226.653 82.822 229.363C92.5348 232.074 102.845 232.896 113.164 231.783C123.483 230.671 133.609 227.645 142.964 222.879L139.263 215.615C130.946 219.852 121.943 222.543 112.769 223.532C103.594 224.521 94.4276 223.79 85.7922 221.38C77.1567 218.971 69.2216 214.929 62.4399 209.488C55.6581 204.046 50.1626 197.31 46.267 189.664C42.3714 182.019 40.1521 173.613 39.7358 164.928C39.3195 156.243 40.7142 147.448 43.8405 139.045C46.9668 130.643 51.7634 122.797 57.9563 115.956C64.1492 109.115 71.6173 103.413 79.9341 99.1758L76.233 91.912Z" fill="#414042" stroke="#414042" stroke-width="61"/>
<path d="M254.435 210.094C264.933 210.094 275.329 208.193 285.029 204.499C294.729 200.806 303.542 195.392 310.966 188.568C318.389 181.743 324.278 173.642 328.296 164.725C332.313 155.808 334.381 146.251 334.381 136.6C334.381 126.949 332.313 117.392 328.296 108.475C324.278 99.5587 318.389 91.4568 310.966 84.6323C303.542 77.8078 294.729 72.3943 285.029 68.7009C275.329 65.0075 264.933 63.1066 254.435 63.1066L254.435 71.2589C263.769 71.2589 273.012 72.949 281.635 76.2327C290.259 79.5164 298.095 84.3294 304.695 90.3969C311.295 96.4644 316.531 103.668 320.103 111.595C323.675 119.523 325.513 128.019 325.513 136.6C325.513 145.181 323.675 153.678 320.103 161.605C316.531 169.533 311.295 176.736 304.695 182.803C298.094 188.871 290.259 193.684 281.635 196.968C273.012 200.251 263.769 201.941 254.435 201.941L254.435 210.094Z" fill="#414042" stroke="#414042" stroke-width="61"/>
<rect x="113.854" y="23.0703" width="5.01908" height="20.7933" transform="rotate(-43 113.854 23.0703)" fill="#414042"/>
<rect x="149.672" y="9.28516" width="5.01907" height="20.7933" transform="rotate(-13 149.672 9.28516)" fill="#414042"/>
<rect x="186.297" y="3.77344" width="5.01907" height="20.7933" transform="rotate(17 186.297 3.77344)" fill="#414042"/>
<rect x="239.899" y="264.164" width="5.01907" height="20.7933" transform="rotate(139 239.899 264.164)" fill="#414042"/>
<rect x="203.621" y="276.695" width="5.01907" height="20.7933" transform="rotate(169 203.621 276.695)" fill="#414042"/>
<rect x="166.826" y="280.926" width="5.01907" height="20.7933" transform="rotate(-161 166.826 280.926)" fill="#414042"/>
</svg>
