<svg xmlns="http://www.w3.org/2000/svg" width="60" height="60" viewBox="0 0 60 60"><defs><style>.a{fill:#76bf44;}</style></defs><g transform="translate(-634.391 -411.214)"><g transform="translate(647.948 429.671)"><path class="a" d="M660.107,452.782a2.35,2.35,0,0,1-1.653-.677l-9.351-9.237a2.288,2.288,0,0,1,0-3.265,2.358,2.358,0,0,1,3.306,0l7.872,7.775,21.744-17.184a2.368,2.368,0,0,1,3.287.361,2.293,2.293,0,0,1-.365,3.247l-23.378,18.475A2.357,2.357,0,0,1,660.107,452.782Z" transform="translate(-648.418 -429.692)"/></g><g transform="translate(634.391 411.214)"><path class="a" d="M664.391,471.214a30,30,0,1,1,30-30A30.035,30.035,0,0,1,664.391,471.214Zm0-55.384a25.385,25.385,0,1,0,25.385,25.384A25.416,25.416,0,0,0,664.391,415.83Z" transform="translate(-634.391 -411.214)"/></g></g></svg>