<svg width="16" height="16" viewBox="0 0 16 16" fill="none" xmlns="http://www.w3.org/2000/svg">
<g clip-path="url(#clip0_2537_29961)">
<path d="M10.3796 8L15.7656 2.61408C16.0771 2.30259 16.0771 1.7971 15.7656 1.4851L14.5141 0.233621C14.2026 -0.0778738 13.6971 -0.0778738 13.3851 0.233621L7.99962 5.62004L2.61362 0.234121C2.30212 -0.0773737 1.79662 -0.0773737 1.48462 0.234121L0.233625 1.4851C-0.077875 1.7966 -0.077875 2.30209 0.233625 2.61408L5.61962 8L0.233625 13.3859C-0.077875 13.6974 -0.077875 14.2029 0.233625 14.5149L1.48512 15.7664C1.79662 16.0779 2.30212 16.0779 2.61413 15.7664L7.99962 10.38L13.3856 15.7659C13.6971 16.0774 14.2026 16.0774 14.5146 15.7659L15.7661 14.5144C16.0776 14.2029 16.0776 13.6974 15.7661 13.3854L10.3796 8Z" fill="#DB1616"/>
</g>
<defs>
<clipPath id="clip0_2537_29961">
<rect width="16" height="16" fill="white"/>
</clipPath>
</defs>
</svg>
