<svg width="23" height="23" viewBox="0 0 23 23" fill="none" xmlns="http://www.w3.org/2000/svg">
<path d="M21.6795 19.6686C22.3303 20.3194 22.3303 21.3753 21.6795 22.0261C21.0287 22.677 19.9728 22.6769 19.322 22.0261L11.1144 13.7574L2.8484 22.0233C2.19762 22.6741 1.14173 22.6741 0.490871 22.0233C-0.159986 21.3725 -0.159916 20.3167 0.490871 19.6658L8.7596 11.4026L0.488579 3.07416C-0.162209 2.42338 -0.162209 1.36749 0.488579 0.716632C1.13937 0.0657754 2.19525 0.0658448 2.84611 0.716632L11.1144 9.04788L19.3803 0.781926C20.0311 0.131139 21.087 0.131139 21.7378 0.781926C22.3887 1.43271 22.3886 2.4886 21.7378 3.13946L13.4691 11.4026L21.6795 19.6686Z" fill="#6F7276"/>
</svg>
