<svg width="328" height="221" viewBox="0 0 328 221" fill="none" xmlns="http://www.w3.org/2000/svg">
<path d="M69.4167 191.754L56.978 188.425C55.149 181.915 54.937 175.056 56.3602 168.445C61.7869 179.173 76.3612 181.195 84.9951 189.56C87.6679 192.19 89.7148 195.387 90.9839 198.916C92.253 202.444 92.7118 206.213 92.3265 209.942L95.3062 218.575C89.258 218.336 83.3335 216.788 77.9409 214.039C72.5484 211.289 67.816 207.404 64.0698 202.649C61.9946 199.961 60.2662 197.022 58.9253 193.902C64.1301 193.14 69.4167 191.754 69.4167 191.754Z" fill="#F2F2F2"/>
<path d="M223.954 221H102.039C98.7712 220.996 95.6388 219.697 93.3284 217.386C91.0181 215.076 89.7185 211.943 89.7148 208.676V47.2457C89.7185 43.9783 91.0181 40.8459 93.3285 38.5355C95.6388 36.2252 98.7713 34.9256 102.039 34.9219H223.954C227.222 34.9256 230.354 36.2251 232.665 38.5355C234.975 40.8459 236.275 43.9783 236.278 47.2457V208.676C236.275 211.944 234.975 215.076 232.665 217.386C230.354 219.697 227.222 220.996 223.954 221Z" fill="#E6E6E6"/>
<path d="M177.422 211.008H110.608C107.633 211.004 104.781 209.821 102.677 207.717C100.573 205.613 99.3901 202.761 99.3867 199.786V56.1352C99.3901 53.1602 100.573 50.308 102.677 48.2044C104.781 46.1007 107.633 44.9174 110.608 44.9141H215.384C218.359 44.9174 221.211 46.1007 223.315 48.2044C225.419 50.308 226.602 53.1602 226.605 56.1352V161.825C226.591 174.864 221.404 187.366 212.184 196.586C202.963 205.806 190.462 210.993 177.422 211.008Z" fill="white"/>
<path d="M204.931 72.4941H121.059C120.7 72.4946 120.344 72.4243 120.012 72.2872C119.68 72.1502 119.378 71.949 119.124 71.6954C118.87 71.4417 118.668 71.1404 118.53 70.8087C118.392 70.477 118.321 70.1214 118.32 69.7622C118.32 69.403 118.39 69.0472 118.527 68.7152C118.664 68.3831 118.865 68.0813 119.119 67.827C119.373 67.5727 119.674 67.3708 120.006 67.233C120.337 67.0951 120.693 67.0239 121.052 67.0234H204.931C205.657 67.0225 206.353 67.3098 206.866 67.8222C207.38 68.3345 207.669 69.0299 207.67 69.7554C207.671 70.4808 207.383 71.1769 206.871 71.6905C206.359 72.2041 205.663 72.4932 204.938 72.4941H204.931Z" fill="#001965"/>
<path d="M204.928 83.2991H121.056C120.33 83.2991 119.635 83.0109 119.122 82.4979C118.609 81.9849 118.32 81.2891 118.32 80.5636C118.32 79.8381 118.609 79.1423 119.122 78.6293C119.635 78.1163 120.33 77.8281 121.056 77.8281H204.928C205.653 77.8281 206.349 78.1163 206.862 78.6293C207.375 79.1423 207.663 79.8381 207.663 80.5636C207.663 81.2891 207.375 81.9849 206.862 82.4979C206.349 83.0109 205.653 83.2991 204.928 83.2991Z" fill="#001965"/>
<path d="M157.412 94.1116H121.056C120.33 94.1116 119.635 93.8234 119.122 93.3104C118.609 92.7974 118.32 92.1016 118.32 91.3761C118.32 90.6506 118.609 89.9548 119.122 89.4418C119.635 88.9288 120.33 88.6406 121.056 88.6406H157.412C158.138 88.6406 158.834 88.9288 159.347 89.4418C159.86 89.9548 160.148 90.6506 160.148 91.3761C160.148 92.1016 159.86 92.7974 159.347 93.3104C158.834 93.8234 158.138 94.1116 157.412 94.1116Z" fill="#001965"/>
<path d="M204.931 116.748H121.059C120.334 116.749 119.638 116.462 119.124 115.949C118.61 115.437 118.321 114.742 118.32 114.016C118.319 113.291 118.607 112.595 119.119 112.081C119.631 111.567 120.327 111.278 121.052 111.277H204.931C205.657 111.276 206.353 111.564 206.866 112.076C207.38 112.588 207.669 113.284 207.67 114.009C207.671 114.735 207.383 115.431 206.871 115.944C206.359 116.458 205.663 116.747 204.938 116.748H204.931Z" fill="#E4E4E4"/>
<path d="M204.928 127.557H121.056C120.33 127.557 119.635 127.269 119.122 126.756C118.609 126.243 118.32 125.547 118.32 124.821C118.32 124.096 118.609 123.4 119.122 122.887C119.635 122.374 120.33 122.086 121.056 122.086H204.928C205.653 122.086 206.349 122.374 206.862 122.887C207.375 123.4 207.663 124.096 207.663 124.821C207.663 125.547 207.375 126.243 206.862 126.756C206.349 127.269 205.653 127.557 204.928 127.557Z" fill="#E4E4E4"/>
<path d="M157.412 138.365H121.056C120.33 138.365 119.635 138.077 119.122 137.564C118.609 137.051 118.32 136.356 118.32 135.63C118.32 134.905 118.609 134.209 119.122 133.696C119.635 133.183 120.33 132.895 121.056 132.895H157.412C158.138 132.895 158.834 133.183 159.347 133.696C159.86 134.209 160.148 134.905 160.148 135.63C160.148 136.356 159.86 137.051 159.347 137.564C158.834 138.077 158.138 138.365 157.412 138.365Z" fill="#E4E4E4"/>
<path d="M204.931 161.002H121.059C120.334 161.003 119.638 160.716 119.124 160.203C118.61 159.691 118.321 158.995 118.32 158.27C118.319 157.545 118.607 156.848 119.119 156.335C119.631 155.821 120.327 155.532 121.052 155.531H204.931C205.657 155.53 206.353 155.818 206.866 156.33C207.38 156.842 207.669 157.538 207.67 158.263C207.671 158.989 207.383 159.685 206.871 160.198C206.359 160.712 205.663 161.001 204.938 161.002H204.931Z" fill="#E4E4E4"/>
<path d="M204.928 171.811H121.056C120.33 171.811 119.635 171.523 119.122 171.01C118.609 170.497 118.32 169.801 118.32 169.075C118.32 168.35 118.609 167.654 119.122 167.141C119.635 166.628 120.33 166.34 121.056 166.34H204.928C205.653 166.34 206.349 166.628 206.862 167.141C207.375 167.654 207.663 168.35 207.663 169.075C207.663 169.801 207.375 170.497 206.862 171.01C206.349 171.523 205.653 171.811 204.928 171.811Z" fill="#E4E4E4"/>
<path d="M157.415 182.619H121.058C120.334 182.618 119.639 182.329 119.127 181.816C118.616 181.303 118.328 180.609 118.328 179.884C118.328 179.159 118.616 178.464 119.127 177.951C119.639 177.439 120.334 177.15 121.058 177.148H157.415C158.139 177.15 158.834 177.439 159.346 177.951C159.858 178.464 160.145 179.159 160.145 179.884C160.145 180.609 159.858 181.303 159.346 181.816C158.834 182.329 158.139 182.618 157.415 182.619Z" fill="#E4E4E4"/>
<path d="M230.256 73.6214C249.896 73.6214 265.817 57.7003 265.817 38.0607C265.817 18.4211 249.896 2.5 230.256 2.5C210.616 2.5 194.695 18.4211 194.695 38.0607C194.695 57.7003 210.616 73.6214 230.256 73.6214Z" fill="#6C63FF"/>
<path opacity="0.16" d="M230.256 68.6943C221.259 68.6931 212.598 65.2814 206.017 59.1469C199.436 53.0124 195.425 44.6112 194.793 35.6367C194.735 36.4646 194.695 37.2974 194.695 38.1399C194.699 47.5689 198.447 56.6105 205.116 63.2765C211.784 69.9425 220.827 73.6873 230.256 73.6873C239.685 73.6873 248.728 69.9425 255.396 63.2765C262.065 56.6105 265.813 47.5689 265.817 38.1399C265.817 37.2974 265.777 36.4646 265.719 35.6367C265.087 44.6112 261.076 53.0124 254.495 59.1469C247.914 65.2814 239.253 68.6931 230.256 68.6943Z" fill="#231F20"/>
<path d="M230.258 55.4378C229.077 55.4364 227.945 54.9668 227.111 54.1319C226.276 53.297 225.806 52.165 225.805 50.9843V25.2159C225.804 24.6307 225.919 24.0511 226.142 23.5102C226.366 22.9694 226.694 22.4779 227.107 22.0638C227.521 21.6498 228.012 21.3214 228.553 21.0973C229.093 20.8732 229.673 20.7578 230.258 20.7578C230.843 20.7578 231.423 20.8732 231.963 21.0973C232.504 21.3214 232.995 21.6498 233.409 22.0638C233.822 22.4779 234.15 22.9694 234.374 23.5102C234.597 24.0511 234.712 24.6307 234.711 25.2159V50.9843C234.71 52.165 234.241 53.2969 233.406 54.1319C232.571 54.9668 231.439 55.4364 230.258 55.4378Z" fill="white"/>
<path d="M212.918 38.1019C212.919 36.9212 213.389 35.7892 214.224 34.9543C215.059 34.1195 216.191 33.6498 217.371 33.6484H243.14C243.725 33.6478 244.305 33.7625 244.846 33.9861C245.386 34.2096 245.878 34.5375 246.292 34.9511C246.706 35.3647 247.034 35.8559 247.258 36.3965C247.483 36.9371 247.598 37.5166 247.598 38.1018C247.598 38.687 247.483 39.2665 247.258 39.8071C247.034 40.3478 246.706 40.8389 246.292 41.2525C245.878 41.6661 245.386 41.994 244.846 42.2176C244.305 42.4411 243.725 42.5558 243.14 42.5552H217.371C216.191 42.5539 215.059 42.0843 214.224 41.2494C213.389 40.4146 212.919 39.2826 212.918 38.1019Z" fill="white"/>
<path d="M263.197 66.9891C265.256 66.9891 266.925 65.3896 266.925 63.4164C266.925 61.4433 265.256 59.8438 263.197 59.8438C261.138 59.8438 259.469 61.4433 259.469 63.4164C259.469 65.3896 261.138 66.9891 263.197 66.9891Z" fill="#3B97DE"/>
<path d="M0.62368 220.884H327C327.165 220.884 327.324 220.818 327.441 220.701C327.558 220.584 327.624 220.426 327.624 220.26C327.624 220.095 327.558 219.936 327.441 219.819C327.324 219.702 327.165 219.637 327 219.637H0.62368C0.458267 219.637 0.299637 219.702 0.182673 219.819C0.0657083 219.936 0 220.095 0 220.26C0 220.426 0.0657083 220.584 0.182673 220.701C0.299637 220.818 0.458267 220.884 0.62368 220.884Z" fill="#CCCCCC"/>
<path d="M230.034 77.9582C251.561 77.9582 269.013 60.5067 269.013 38.9791C269.013 17.4515 251.561 0 230.034 0C208.506 0 191.055 17.4515 191.055 38.9791C191.055 60.5067 208.506 77.9582 230.034 77.9582Z" fill="#D1D3D4"/>
<path d="M230.033 76.2659C249.673 76.2659 265.594 60.3448 265.594 40.7052C265.594 21.0656 249.673 5.14453 230.033 5.14453C210.394 5.14453 194.473 21.0656 194.473 40.7052C194.473 60.3448 210.394 76.2659 230.033 76.2659Z" fill="#001965"/>
<path d="M226.93 54.6446C226.853 54.6446 226.775 54.6427 226.698 54.639C226.016 54.6059 225.349 54.4257 224.743 54.1108C224.137 53.7959 223.606 53.3537 223.187 52.8146L217.583 45.6094C216.812 44.6166 216.467 43.3586 216.623 42.1115C216.778 40.8644 217.422 39.7301 218.414 38.9574L218.614 38.801C219.607 38.0304 220.866 37.685 222.113 37.8405C223.36 37.9961 224.495 38.6399 225.268 39.6309C225.52 39.9546 225.838 40.2202 226.202 40.4092C226.566 40.5983 226.966 40.7065 227.376 40.7263C227.786 40.7503 228.196 40.6834 228.577 40.5306C228.958 40.3777 229.301 40.1425 229.58 39.8418L240.96 27.8293C241.825 26.9181 243.017 26.3873 244.273 26.3533C245.529 26.3193 246.748 26.7849 247.661 27.648L247.846 27.8229C248.758 28.6881 249.289 29.8797 249.323 31.1361C249.357 32.3926 248.892 33.6113 248.028 34.5248L230.37 53.1643C229.927 53.632 229.394 54.0046 228.802 54.2591C228.211 54.5137 227.574 54.6448 226.93 54.6446Z" fill="white"/>
<path opacity="0.16" d="M230.033 71.3388C221.037 71.3376 212.375 67.9259 205.794 61.7914C199.213 55.6569 195.202 47.2557 194.57 38.2812C194.512 39.1091 194.473 39.9419 194.473 40.7845C194.473 50.2157 198.219 59.2607 204.888 65.9296C211.557 72.5986 220.602 76.3451 230.033 76.3451C239.465 76.3451 248.51 72.5986 255.179 65.9296C261.847 59.2607 265.594 50.2157 265.594 40.7845C265.594 39.9419 265.554 39.1091 265.497 38.2812C264.864 47.2557 260.854 55.6569 254.273 61.7914C247.692 67.9259 239.03 71.3376 230.033 71.3388Z" fill="#231F20"/>
<path d="M38.8512 126.385C41.8109 126.385 44.2103 124.085 44.2103 121.249C44.2103 118.413 41.8109 116.113 38.8512 116.113C35.8915 116.113 33.4922 118.413 33.4922 121.249C33.4922 124.085 35.8915 126.385 38.8512 126.385Z" fill="#3B97DE"/>
<path d="M264.38 165.471C264.849 162.579 262.886 159.855 259.994 159.386C257.102 158.916 254.378 160.88 253.908 163.772C253.439 166.664 255.403 169.388 258.295 169.857C261.186 170.327 263.911 168.363 264.38 165.471Z" fill="#E6E6E6"/>
<path d="M61.1832 53.5892C64.143 53.5892 66.5423 51.1898 66.5423 48.2301C66.5423 45.2704 64.143 42.8711 61.1832 42.8711C58.2235 42.8711 55.8242 45.2704 55.8242 48.2301C55.8242 51.1898 58.2235 53.5892 61.1832 53.5892Z" fill="#E6E6E6"/>
</svg>
