<svg width="734" height="495" viewBox="0 0 734 495" fill="none" xmlns="http://www.w3.org/2000/svg">
<path d="M155.437 429.376L127.584 421.923C123.489 407.345 123.014 391.987 126.201 377.184C138.352 401.204 170.987 405.733 190.32 424.464C196.305 430.353 200.889 437.513 203.73 445.413C206.572 453.314 207.6 461.752 206.737 470.104L213.409 489.434C199.866 488.898 186.6 485.433 174.525 479.277C162.45 473.12 151.853 464.419 143.464 453.773C138.817 447.754 134.947 441.174 131.945 434.188C143.599 432.48 155.437 429.376 155.437 429.376Z" fill="#F2F2F2"/>
<path d="M501.477 494.867H228.482C221.166 494.859 214.152 491.949 208.978 486.775C203.805 481.602 200.895 474.588 200.887 467.271V105.795C200.895 98.4786 203.805 91.4643 208.978 86.2909C214.152 81.1176 221.166 78.2075 228.482 78.1992H501.477C508.793 78.2075 515.808 81.1175 520.981 86.2909C526.154 91.4643 529.065 98.4785 529.073 105.795V467.271C529.065 474.588 526.154 481.602 520.981 486.775C515.808 491.949 508.793 494.859 501.477 494.867Z" fill="#E6E6E6"/>
<path d="M397.283 472.492H247.671C241.01 472.485 234.623 469.835 229.913 465.124C225.202 460.414 222.552 454.027 222.545 447.365V125.701C222.552 119.039 225.202 112.652 229.913 107.942C234.623 103.231 241.01 100.582 247.671 100.574H482.287C488.949 100.582 495.336 103.231 500.046 107.942C504.757 112.652 507.406 119.039 507.414 125.701V362.361C507.381 391.56 495.767 419.553 475.121 440.199C454.474 460.846 426.481 472.459 397.283 472.492Z" fill="white"/>
<path d="M458.885 162.324H271.078C270.274 162.325 269.477 162.168 268.733 161.861C267.99 161.554 267.314 161.104 266.745 160.536C266.175 159.968 265.723 159.293 265.414 158.55C265.106 157.807 264.946 157.011 264.945 156.207C264.944 155.403 265.102 154.606 265.409 153.862C265.715 153.119 266.166 152.443 266.734 151.874C267.302 151.304 267.977 150.852 268.719 150.543C269.462 150.235 270.258 150.075 271.063 150.074H458.885C460.509 150.072 462.068 150.716 463.218 151.863C464.368 153.01 465.016 154.567 465.018 156.192C465.02 157.816 464.376 159.375 463.229 160.525C462.082 161.675 460.525 162.322 458.9 162.324H458.885Z" fill="#001965"/>
<path d="M458.884 186.528H271.076C269.452 186.528 267.894 185.883 266.745 184.734C265.597 183.585 264.951 182.027 264.951 180.403C264.951 178.778 265.597 177.22 266.745 176.071C267.894 174.923 269.452 174.277 271.076 174.277H458.884C460.508 174.277 462.066 174.923 463.215 176.071C464.363 177.22 465.009 178.778 465.009 180.403C465.009 182.027 464.363 183.585 463.215 184.734C462.066 185.883 460.508 186.528 458.884 186.528Z" fill="#001965"/>
<path d="M352.486 210.731H271.076C269.452 210.731 267.894 210.086 266.745 208.937C265.597 207.788 264.951 206.23 264.951 204.606C264.951 202.981 265.597 201.423 266.745 200.275C267.894 199.126 269.452 198.48 271.076 198.48H352.486C354.111 198.48 355.669 199.126 356.818 200.275C357.966 201.423 358.612 202.981 358.612 204.606C358.612 206.23 357.966 207.788 356.818 208.937C355.669 210.086 354.111 210.731 352.486 210.731Z" fill="#001965"/>
<path d="M458.885 261.422H271.078C269.454 261.424 267.895 260.781 266.745 259.633C265.595 258.486 264.947 256.929 264.945 255.305C264.943 253.68 265.587 252.121 266.734 250.971C267.881 249.821 269.438 249.174 271.063 249.172H458.885C460.509 249.17 462.068 249.813 463.218 250.96C464.368 252.108 465.016 253.665 465.018 255.289C465.02 256.914 464.376 258.472 463.229 259.622C462.082 260.773 460.525 261.42 458.9 261.422H458.885Z" fill="#E4E4E4"/>
<path d="M458.884 285.626H271.076C269.452 285.626 267.894 284.98 266.745 283.832C265.597 282.683 264.951 281.125 264.951 279.5C264.951 277.876 265.597 276.318 266.745 275.169C267.894 274.02 269.452 273.375 271.076 273.375H458.884C460.508 273.375 462.066 274.02 463.215 275.169C464.363 276.318 465.009 277.876 465.009 279.5C465.009 281.125 464.363 282.683 463.215 283.832C462.066 284.98 460.508 285.626 458.884 285.626Z" fill="#E4E4E4"/>
<path d="M352.486 309.829H271.076C269.452 309.829 267.894 309.183 266.745 308.035C265.597 306.886 264.951 305.328 264.951 303.703C264.951 302.079 265.597 300.521 266.745 299.372C267.894 298.223 269.452 297.578 271.076 297.578H352.486C354.111 297.578 355.669 298.223 356.818 299.372C357.966 300.521 358.612 302.079 358.612 303.703C358.612 305.328 357.966 306.886 356.818 308.035C355.669 309.183 354.111 309.829 352.486 309.829Z" fill="#E4E4E4"/>
<path d="M458.885 360.519H271.078C269.454 360.522 267.895 359.878 266.745 358.731C265.595 357.584 264.947 356.027 264.945 354.402C264.943 352.778 265.587 351.219 266.734 350.069C267.881 348.919 269.438 348.272 271.063 348.27H458.885C460.509 348.268 462.068 348.911 463.218 350.058C464.368 351.205 465.016 352.762 465.018 354.387C465.02 356.011 464.376 357.57 463.229 358.72C462.082 359.87 460.525 360.517 458.9 360.519H458.885Z" fill="#E4E4E4"/>
<path d="M458.884 384.719H271.076C269.452 384.719 267.894 384.074 266.745 382.925C265.597 381.777 264.951 380.219 264.951 378.594C264.951 376.969 265.597 375.411 266.745 374.263C267.894 373.114 269.452 372.469 271.076 372.469H458.884C460.508 372.469 462.066 373.114 463.215 374.263C464.363 375.411 465.009 376.969 465.009 378.594C465.009 380.219 464.363 381.777 463.215 382.925C462.066 384.074 460.508 384.719 458.884 384.719Z" fill="#E4E4E4"/>
<path d="M352.486 408.923H271.076C269.454 408.919 267.899 408.273 266.753 407.124C265.607 405.976 264.963 404.42 264.963 402.797C264.963 401.175 265.607 399.618 266.753 398.47C267.899 397.322 269.454 396.675 271.076 396.672H352.486C354.109 396.675 355.664 397.322 356.81 398.47C357.956 399.618 358.6 401.175 358.6 402.797C358.6 404.42 357.956 405.976 356.81 407.124C355.664 408.273 354.109 408.919 352.486 408.923Z" fill="#E4E4E4"/>
<path d="M515.593 164.857C559.57 164.857 595.221 129.207 595.221 85.2294C595.221 41.2522 559.57 5.60156 515.593 5.60156C471.615 5.60156 435.965 41.2522 435.965 85.2294C435.965 129.207 471.615 164.857 515.593 164.857Z" fill="#6C63FF"/>
<path opacity="0.16" d="M515.593 153.827C495.447 153.825 476.052 146.185 461.316 132.449C446.58 118.712 437.599 99.9004 436.183 79.8047C436.054 81.6585 435.965 83.5232 435.965 85.4099C435.973 106.523 444.366 126.769 459.298 141.696C474.23 156.623 494.479 165.008 515.593 165.008C536.706 165.008 556.955 156.623 571.887 141.696C586.82 126.769 595.213 106.523 595.22 85.4099C595.22 83.5232 595.131 81.6585 595.002 79.8047C593.587 99.9004 584.606 118.712 569.87 132.449C555.134 146.185 535.738 153.825 515.593 153.827Z" fill="#231F20"/>
<path d="M515.593 124.14C512.95 124.137 510.415 123.085 508.545 121.216C506.676 119.346 505.624 116.812 505.621 114.168V56.467C505.62 55.1566 505.877 53.8587 506.377 52.6476C506.878 51.4365 507.612 50.336 508.538 49.4089C509.464 48.4817 510.564 47.7463 511.775 47.2445C512.985 46.7427 514.283 46.4844 515.593 46.4844C516.904 46.4844 518.201 46.7427 519.412 47.2445C520.622 47.7463 521.722 48.4817 522.648 49.4089C523.574 50.336 524.309 51.4365 524.809 52.6476C525.31 53.8587 525.567 55.1566 525.565 56.467V114.168C525.562 116.812 524.511 119.346 522.641 121.216C520.772 123.085 518.237 124.137 515.593 124.14Z" fill="white"/>
<path d="M476.769 85.32C476.772 82.6761 477.823 80.1414 479.693 78.2719C481.562 76.4024 484.097 75.3507 486.741 75.3477H544.442C545.752 75.3463 547.05 75.6032 548.261 76.1037C549.472 76.6042 550.573 77.3385 551.5 78.2647C552.427 79.1908 553.162 80.2906 553.664 81.5011C554.166 82.7117 554.424 84.0093 554.424 85.3197C554.424 86.6302 554.166 87.9277 553.664 89.1383C553.162 90.3489 552.427 91.4486 551.5 92.3748C550.573 93.3009 549.472 94.0352 548.261 94.5357C547.05 95.0362 545.752 95.2932 544.442 95.2918H486.741C484.097 95.2888 481.562 94.2373 479.693 92.3679C477.823 90.4985 476.772 87.9638 476.769 85.32Z" fill="white"/>
<path d="M589.348 150C593.958 150 597.696 146.418 597.696 142C597.696 137.582 593.958 134 589.348 134C584.737 134 581 137.582 581 142C581 146.418 584.737 150 589.348 150Z" fill="#3B97DE"/>
<path d="M1.39655 494.61H732.221C732.591 494.61 732.947 494.462 733.208 494.201C733.47 493.939 733.618 493.583 733.618 493.213C733.618 492.843 733.47 492.487 733.208 492.225C732.947 491.964 732.591 491.816 732.221 491.816H1.39655C1.02615 491.816 0.670951 491.964 0.409043 492.225C0.147135 492.487 0 492.843 0 493.213C0 493.583 0.147135 493.939 0.409043 494.201C0.670951 494.462 1.02615 494.61 1.39655 494.61Z" fill="#CCCCCC"/>
<path d="M515.102 174.565C563.306 174.565 602.384 135.487 602.384 87.2824C602.384 39.0777 563.306 0 515.102 0C466.897 0 427.819 39.0777 427.819 87.2824C427.819 135.487 466.897 174.565 515.102 174.565Z" fill="#D1D3D4"/>
<path d="M515.102 170.779C559.08 170.779 594.73 135.128 594.73 91.1513C594.73 47.174 559.08 11.5234 515.102 11.5234C471.125 11.5234 435.475 47.174 435.475 91.1513C435.475 135.128 471.125 170.779 515.102 170.779Z" fill="#001965"/>
<path d="M508.15 122.358C507.978 122.358 507.804 122.354 507.63 122.345C506.103 122.271 504.61 121.868 503.253 121.163C501.897 120.457 500.709 119.467 499.771 118.26L487.22 102.126C485.495 99.9031 484.721 97.0863 485.07 94.2938C485.419 91.5013 486.861 88.9612 489.081 87.2309L489.53 86.8808C491.754 85.1552 494.571 84.3817 497.364 84.7301C500.157 85.0784 502.698 86.5202 504.43 88.7391C504.993 89.464 505.706 90.0586 506.521 90.482C507.335 90.9054 508.232 91.1475 509.149 91.192C510.067 91.2457 510.985 91.096 511.839 90.7536C512.692 90.4113 513.459 89.8847 514.086 89.2115L539.567 62.3129C541.505 60.2725 544.173 59.0839 546.986 59.0078C549.799 58.9317 552.527 59.9742 554.572 61.9069L554.986 62.2984C557.028 64.2359 558.218 66.9041 558.294 69.7176C558.371 72.531 557.328 75.26 555.395 77.3055L515.853 119.043C514.862 120.091 513.668 120.925 512.343 121.495C511.019 122.065 509.592 122.358 508.15 122.358Z" fill="white"/>
<path opacity="0.16" d="M515.102 159.745C494.957 159.743 475.561 152.103 460.825 138.367C446.089 124.63 437.108 105.818 435.693 85.7227C435.564 87.5764 435.475 89.4412 435.475 91.3279C435.475 112.446 443.864 132.7 458.797 147.633C473.73 162.566 493.984 170.956 515.102 170.956C536.221 170.956 556.475 162.566 571.408 147.633C586.341 132.7 594.73 112.446 594.73 91.3279C594.73 89.4412 594.641 87.5764 594.512 85.7227C593.096 105.818 584.116 124.63 569.38 138.367C554.643 152.103 535.248 159.743 515.102 159.745Z" fill="#231F20"/>
<path d="M87 283C93.6274 283 99 277.851 99 271.5C99 265.149 93.6274 260 87 260C80.3726 260 75 265.149 75 271.5C75 277.851 80.3726 283 87 283Z" fill="#3B97DE"/>
<path d="M592.008 370.526C593.058 364.051 588.661 357.95 582.186 356.899C575.711 355.848 569.61 360.246 568.559 366.721C567.508 373.196 571.905 379.297 578.381 380.348C584.856 381.399 590.957 377.001 592.008 370.526Z" fill="#E6E6E6"/>
<path d="M137 120C143.627 120 149 114.627 149 108C149 101.373 143.627 96 137 96C130.373 96 125 101.373 125 108C125 114.627 130.373 120 137 120Z" fill="#E6E6E6"/>
</svg>
