<svg width="16" height="16" viewBox="0 0 16 16" fill="none" xmlns="http://www.w3.org/2000/svg">
<path d="M9.51788 13H10.2679C10.3673 13 10.4627 12.9605 10.533 12.8902C10.6034 12.8198 10.6429 12.7245 10.6429 12.625V5.875C10.6429 5.77554 10.6034 5.68016 10.533 5.60984C10.4627 5.53951 10.3673 5.5 10.2679 5.5H9.51788C9.41843 5.5 9.32304 5.53951 9.25272 5.60984C9.18239 5.68016 9.14288 5.77554 9.14288 5.875V12.625C9.14288 12.7245 9.18239 12.8198 9.25272 12.8902C9.32304 12.9605 9.41843 13 9.51788 13ZM14.6429 2.5H12.0676L11.0051 0.728125C10.8717 0.505942 10.6831 0.322091 10.4576 0.194487C10.2321 0.066882 9.97732 -0.000123231 9.7182 1.70139e-07H6.56757C6.30855 -1.5274e-05 6.05395 0.0670412 5.82854 0.194641C5.60313 0.32224 5.41461 0.506033 5.28132 0.728125L4.2182 2.5H1.64288C1.51028 2.5 1.3831 2.55268 1.28933 2.64645C1.19556 2.74022 1.14288 2.86739 1.14288 3V3.5C1.14288 3.63261 1.19556 3.75979 1.28933 3.85355C1.3831 3.94732 1.51028 4 1.64288 4H2.14288V14.5C2.14288 14.8978 2.30092 15.2794 2.58222 15.5607C2.86353 15.842 3.24506 16 3.64288 16H12.6429C13.0407 16 13.4222 15.842 13.7035 15.5607C13.9848 15.2794 14.1429 14.8978 14.1429 14.5V4H14.6429C14.7755 4 14.9027 3.94732 14.9964 3.85355C15.0902 3.75979 15.1429 3.63261 15.1429 3.5V3C15.1429 2.86739 15.0902 2.74022 14.9964 2.64645C14.9027 2.55268 14.7755 2.5 14.6429 2.5ZM6.51288 1.59094C6.52959 1.56312 6.55324 1.54012 6.5815 1.52418C6.60977 1.50824 6.64168 1.49991 6.67413 1.5H9.61163C9.64403 1.49996 9.67588 1.50832 9.70409 1.52426C9.73229 1.54019 9.75589 1.56317 9.77257 1.59094L10.3182 2.5H5.96757L6.51288 1.59094ZM12.6429 14.5H3.64288V4H12.6429V14.5ZM6.01788 13H6.76788C6.86734 13 6.96272 12.9605 7.03305 12.8902C7.10337 12.8198 7.14288 12.7245 7.14288 12.625V5.875C7.14288 5.77554 7.10337 5.68016 7.03305 5.60984C6.96272 5.53951 6.86734 5.5 6.76788 5.5H6.01788C5.91843 5.5 5.82304 5.53951 5.75272 5.60984C5.68239 5.68016 5.64288 5.77554 5.64288 5.875V12.625C5.64288 12.7245 5.68239 12.8198 5.75272 12.8902C5.82304 12.9605 5.91843 13 6.01788 13Z" fill="#6F7276"/>
</svg>
