<svg width="16" height="21" viewBox="0 0 16 21" fill="none" xmlns="http://www.w3.org/2000/svg">
<path d="M11.6074 10.0156V11.1094C11.6074 11.3672 11.3965 11.5781 11.1387 11.5781H4.57617C4.31836 11.5781 4.10742 11.3672 4.10742 11.1094V10.0156C4.10742 9.75781 4.31836 9.54688 4.57617 9.54688H11.1387C11.3965 9.54688 11.6074 9.75781 11.6074 10.0156ZM11.1387 12.8281H4.57617C4.31836 12.8281 4.10742 13.0391 4.10742 13.2969V14.3906C4.10742 14.6484 4.31836 14.8594 4.57617 14.8594H11.1387C11.3965 14.8594 11.6074 14.6484 11.6074 14.3906V13.2969C11.6074 13.0391 11.3965 12.8281 11.1387 12.8281ZM15.3574 5.48047V18.4531C15.3574 19.4883 14.5176 20.3281 13.4824 20.3281H2.23242C1.19727 20.3281 0.357422 19.4883 0.357422 18.4531V2.20312C0.357422 1.16797 1.19727 0.328125 2.23242 0.328125H10.2051C10.7012 0.328125 11.1777 0.527344 11.5293 0.878906L14.8066 4.15625C15.1582 4.50391 15.3574 4.98438 15.3574 5.48047ZM10.3574 2.35547V5.32812H13.3301L10.3574 2.35547ZM13.4824 18.4531V7.20312H9.41992C8.90039 7.20312 8.48242 6.78516 8.48242 6.26562V2.20312H2.23242V18.4531H13.4824Z" fill="#6F7276"/>
</svg>
