<svg width="16" height="17" viewBox="0 0 16 17" fill="none" xmlns="http://www.w3.org/2000/svg">
<path d="M8 0.453125C3.58125 0.453125 0 4.03438 0 8.45312C0 12.8719 3.58125 16.4531 8 16.4531C12.4187 16.4531 16 12.8719 16 8.45312C16 4.03438 12.4187 0.453125 8 0.453125ZM8 14.9531C4.41563 14.9531 1.5 12.0372 1.5 8.45312C1.5 4.86906 4.41563 1.95312 8 1.95312C11.5844 1.95312 14.5 4.86906 14.5 8.45312C14.5 12.0372 11.5844 14.9531 8 14.9531ZM9.25 10.9531H8.75V8.20312C8.75 7.79063 8.41562 7.45312 8 7.45312H7C6.5875 7.45312 6.25 7.79063 6.25 8.20312C6.25 8.61563 6.5875 8.95312 7 8.95312H7.25V10.9531H6.75C6.3375 10.9531 6 11.2906 6 11.7031C6 12.1156 6.3375 12.4531 6.75 12.4531H9.25C9.66406 12.4531 10 12.1172 10 11.7031C10 11.2891 9.66562 10.9531 9.25 10.9531ZM8 6.45312C8.55219 6.45312 9 6.00531 9 5.45312C9 4.90094 8.55219 4.45312 8 4.45312C7.44781 4.45312 7 4.9 7 5.45312C7 6.00625 7.44688 6.45312 8 6.45312Z" fill="#6F7276"/>
</svg>
