<svg width="12" height="12" viewBox="0 0 12 12" fill="none" xmlns="http://www.w3.org/2000/svg">
<path d="M11 6.74912H8V5.99912H9.33333C10.2208 5.99912 10.6708 4.7874 10.0396 4.07959L6.70625 0.32959C6.31458 -0.111035 5.68333 -0.108691 5.29167 0.32959L1.95833 4.07959C1.33125 4.78506 1.77708 5.99912 2.66667 5.99912H4V6.74912H1C0.447917 6.74912 0 7.25303 0 7.87412V10.8741C0 11.4952 0.447917 11.9991 1 11.9991H11C11.5521 11.9991 12 11.4952 12 10.8741V7.87412C12 7.25303 11.5521 6.74912 11 6.74912ZM2.66667 4.87412L6 1.12412L9.33333 4.87412H7V8.62412H5V4.87412H2.66667ZM11 10.8741H1V7.87412H4V8.62412C4 9.24522 4.44792 9.74912 5 9.74912H7C7.55208 9.74912 8 9.24522 8 8.62412V7.87412H11V10.8741ZM10.1667 9.37412C10.1667 9.68584 9.94375 9.93662 9.66667 9.93662C9.38958 9.93662 9.16667 9.68584 9.16667 9.37412C9.16667 9.0624 9.38958 8.81162 9.66667 8.81162C9.94375 8.81162 10.1667 9.0624 10.1667 9.37412Z" fill="#007178"/>
</svg>
