<svg width="12" height="12" viewBox="0 0 12 12" fill="none" xmlns="http://www.w3.org/2000/svg">
<path d="M10.4999 7.12502H7.49996V8.25002H10.4999C10.7067 8.25002 10.8749 8.41825 10.8749 8.62502V10.5C10.8749 10.7068 10.7067 10.875 10.4999 10.875H1.49999C1.29323 10.875 1.12499 10.7068 1.12499 10.5V8.62502C1.12499 8.41877 1.29327 8.25002 1.49999 8.25002H4.49998V7.12502H1.49999C0.671481 7.12502 0 7.7965 0 8.62502V10.5C0 11.3285 0.671481 12 1.49999 12H10.4999C11.3285 12 11.9999 11.3285 11.9999 10.5V8.62502C11.9999 7.79768 11.3273 7.12502 10.4999 7.12502ZM3.18983 4.12738L5.43747 1.92051V8.25002C5.43747 8.56056 5.68942 8.81251 5.99997 8.81251C6.31052 8.81251 6.56247 8.56056 6.56247 8.25002V1.92051L8.78972 4.14777C8.89917 4.25863 9.04214 4.31253 9.18745 4.31253C9.33277 4.31253 9.47527 4.2576 9.58519 4.14775C9.80491 3.92802 9.80491 3.57212 9.58519 3.35228L6.3977 0.164794C6.17798 -0.0549314 5.82208 -0.0549314 5.60224 0.164794L2.41475 3.35228C2.19503 3.57201 2.19503 3.9279 2.41475 4.14775C2.63448 4.36759 2.99061 4.36644 3.18983 4.12738ZM10.1249 9.56251C10.1249 9.25173 9.873 9.00001 9.56245 9.00001C9.25191 9.00001 8.99996 9.25079 8.99996 9.56251C8.99996 9.87306 9.25191 10.125 9.56245 10.125C9.873 10.125 10.1249 9.87423 10.1249 9.56251Z" fill="#3B97DE"/>
</svg>
