<svg width="12" height="12" viewBox="0 0 12 12" fill="none" xmlns="http://www.w3.org/2000/svg">
<path d="M1.10895 2.33686L1.10915 1.35596C1.10924 0.940617 1.44512 0.604741 1.85825 0.606865L10.4456 0.602885C10.861 0.6028 11.1967 0.938537 11.1944 1.35167L11.1926 9.94125C11.1925 10.3566 10.8567 10.6925 10.4435 10.6903L9.46263 10.6905C9.04287 10.6906 8.70492 10.3438 8.71385 9.92408L8.84085 4.72568L2.49014 11.0764C2.19625 11.3703 1.72347 11.3704 1.4297 11.0766L0.722884 10.3698C0.429114 10.076 0.429212 9.60324 0.723103 9.30935L7.07381 2.95864L1.87541 3.08564C1.45344 3.09678 1.10666 2.75883 1.10895 2.33686Z" fill="#525CA3"/>
</svg>
