<svg width="150" height="46" viewBox="0 0 150 46" fill="none" xmlns="http://www.w3.org/2000/svg">
<g clip-path="url(#clip0_3484_4605)">
<path d="M145.416 10.1283C147.619 9.22466 148.665 6.72354 147.752 4.54193C146.84 2.36031 144.314 1.32434 142.111 2.22802C139.908 3.13169 138.861 5.63281 139.774 7.81442C140.687 9.99603 143.212 11.032 145.416 10.1283Z" fill="white"/>
<path d="M11.4962 20.2544H13.2588L24.755 44.874H22.7462L19.61 38.0293H5.04159L1.90537 44.874H0L11.4962 20.2544ZM18.8321 36.3864L12.343 22.2435L5.81949 36.3864H18.8321Z" fill="white"/>
<path d="M25.5278 42.6411L26.5519 41.2809C28.5262 42.7825 30.7122 43.621 33.0065 43.621C35.4387 43.621 37.3441 42.2949 37.3441 40.2327V40.1645C37.3441 38.0682 35.0891 37.3028 32.5831 36.6007C29.6586 35.7622 26.4091 34.8895 26.4091 31.7109V31.6427C26.4091 28.7809 28.8413 26.7188 32.332 26.7188C34.4835 26.7188 36.9157 27.489 38.7128 28.6737L37.797 30.107C36.1378 29.0247 34.1635 28.3276 32.2582 28.3276C29.7915 28.3276 28.1668 29.6536 28.1668 31.4379V31.5062C28.1668 33.4952 30.599 34.2314 33.1739 34.9627C36.064 35.7671 39.0968 36.8152 39.0968 39.9549V40.0231C39.0968 43.2017 36.3446 45.2249 32.8884 45.2249C30.2888 45.2249 27.4332 44.1768 25.5278 42.6411Z" fill="white"/>
<path d="M40.8348 42.6411L41.8589 41.2809C43.8332 42.7825 46.0192 43.621 48.3135 43.621C50.7457 43.621 52.6511 42.2949 52.6511 40.2327V40.1645C52.6511 38.0682 50.3961 37.3028 47.8901 36.6007C44.9656 35.7622 41.7161 34.8895 41.7161 31.7109V31.6427C41.7161 28.7809 44.1483 26.7188 47.639 26.7188C49.7905 26.7188 52.2227 27.489 54.0198 28.6737L53.104 30.107C51.4448 29.0247 49.4705 28.3276 47.5652 28.3276C45.0985 28.3276 43.4738 29.6536 43.4738 31.4379V31.5062C43.4738 33.4952 45.906 34.2314 48.4809 34.9627C51.371 35.7671 54.4038 36.8152 54.4038 39.9549V40.0231C54.4038 43.2017 51.6516 45.2249 48.1954 45.2249C45.5958 45.2249 42.7402 44.1768 40.8348 42.6411Z" fill="white"/>
<path d="M58.7759 20.0786H60.9274V22.4187H58.7759V20.0786ZM58.9876 27.0647H60.7157V44.8738H58.9876V27.0647Z" fill="white"/>
<path d="M64.7922 42.6411L65.8163 41.2809C67.7906 42.7825 69.9766 43.621 72.2709 43.621C74.7031 43.621 76.6085 42.2949 76.6085 40.2327V40.1645C76.6085 38.0682 74.3535 37.3028 71.8475 36.6007C68.923 35.7622 65.6735 34.8895 65.6735 31.7109V31.6427C65.6735 28.7809 68.1057 26.7188 71.5964 26.7188C73.7479 26.7188 76.1801 27.489 77.9772 28.6737L77.0614 30.107C75.4022 29.0247 73.4279 28.3276 71.5226 28.3276C69.0559 28.3276 67.4312 29.6536 67.4312 31.4379V31.5062C67.4312 33.4952 69.8634 34.2314 72.4383 34.9627C75.3284 35.7671 78.3612 36.8152 78.3612 39.9549V40.0231C78.3612 43.2017 75.609 45.2249 72.1528 45.2249C69.5532 45.2249 66.6976 44.1768 64.7922 42.6411Z" fill="white"/>
<path d="M82.5954 40.3009V28.6346H79.986V27.0648H82.5954V21.3706H84.3235V27.0648H90.6353V28.6346H84.3235V40.1254C84.3235 42.6751 85.8399 43.5819 87.9225 43.5819C88.8038 43.5819 89.5423 43.4064 90.5664 42.953V44.5569C89.6507 44.9762 88.7694 45.1858 87.6419 45.1858C84.8503 45.1907 82.5954 43.6843 82.5954 40.3009Z" fill="white"/>
<path d="M94.1014 20.4297H105.105C108.207 20.4297 110.644 21.3365 112.229 22.8721C113.534 24.1982 114.278 26.0166 114.278 28.1471V28.2153C114.278 32.2325 111.845 34.6408 108.389 35.6207L115.056 44.8738H109.94L103.874 36.352H103.806H98.4439V44.8738H94.1064V20.4297H94.1014ZM104.785 32.5445C107.887 32.5445 109.861 30.9406 109.861 28.4591V28.3909C109.861 25.7729 107.956 24.3396 104.746 24.3396H98.434V32.5445H104.785Z" fill="white"/>
<path d="M122.48 35.5136L115.883 26.436H120.54L124.843 32.5105L129.146 26.436H133.696L127.098 35.4112L133.976 44.874H129.319L124.735 38.4143L120.186 44.874H115.636L122.48 35.5136Z" fill="white"/>
<path d="M148.072 11.9663H139.515V20.4394H148.072V11.9663Z" fill="white"/>
<path d="M139.535 19.937V25.2266C139.559 27.5033 141.46 29.3412 143.798 29.3412C146.137 29.3412 148.042 27.5033 148.062 25.2266V19.937H139.535ZM147.55 25.0998V25.29C147.53 27.279 145.847 28.8976 143.803 28.8976C141.755 28.8976 140.076 27.279 140.057 25.29V25.1534V20.5269H147.56V25.0998H147.55Z" fill="white"/>
<path d="M140.003 11.9663H134.661C132.361 11.9907 130.505 13.8725 130.505 16.1882C130.505 18.5039 132.361 20.3906 134.661 20.4101H140.003V11.9663ZM134.789 19.908H134.597C132.588 19.8885 130.953 18.2212 130.953 16.198C130.953 14.1699 132.588 12.5075 134.597 12.488H134.734H139.407V19.9177H134.789V19.908Z" fill="white"/>
</g>
<defs>
<clipPath id="clip0_3484_4605">
<rect width="150" height="45.7015" fill="white"/>
</clipPath>
</defs>
</svg>
