<svg width="150" height="75" viewBox="0 0 150 75" fill="none" xmlns="http://www.w3.org/2000/svg">
<path d="M62.5137 21.8184H63.0117C63.4772 21.8184 63.8255 21.7272 64.0566 21.5449C64.2878 21.3594 64.4033 21.0908 64.4033 20.7393C64.4033 20.3844 64.3057 20.1224 64.1104 19.9531C63.9183 19.7839 63.6156 19.6992 63.2021 19.6992H62.5137V21.8184ZM65.9316 20.6855C65.9316 21.4538 65.6908 22.0413 65.209 22.4482C64.7305 22.8551 64.0485 23.0586 63.1631 23.0586H62.5137V25.5977H61V18.459H63.2803C64.1462 18.459 64.8037 18.6462 65.2529 19.0205C65.7054 19.3916 65.9316 19.9466 65.9316 20.6855Z" fill="#ACACAC"/>
<path d="M68.3486 22.8584C68.3486 23.3988 68.4365 23.8073 68.6123 24.084C68.7913 24.3607 69.0811 24.499 69.4814 24.499C69.8786 24.499 70.1634 24.3623 70.3359 24.0889C70.5117 23.8122 70.5996 23.402 70.5996 22.8584C70.5996 22.318 70.5117 21.9128 70.3359 21.6426C70.1602 21.3724 69.8721 21.2373 69.4717 21.2373C69.0745 21.2373 68.7881 21.3724 68.6123 21.6426C68.4365 21.9095 68.3486 22.3148 68.3486 22.8584ZM72.123 22.8584C72.123 23.7471 71.8887 24.4421 71.4199 24.9434C70.9512 25.4447 70.2985 25.6953 69.4619 25.6953C68.9378 25.6953 68.4756 25.5814 68.0752 25.3535C67.6748 25.1224 67.3672 24.792 67.1523 24.3623C66.9375 23.9326 66.8301 23.4313 66.8301 22.8584C66.8301 21.9665 67.0628 21.2731 67.5283 20.7783C67.9938 20.2835 68.6481 20.0361 69.4912 20.0361C70.0153 20.0361 70.4775 20.1501 70.8779 20.3779C71.2783 20.6058 71.5859 20.9329 71.8008 21.3594C72.0156 21.7858 72.123 22.2855 72.123 22.8584Z" fill="#ACACAC"/>
<path d="M77.8408 25.5977L77.4209 23.6885L76.8545 21.2764H76.8203L75.8242 25.5977H74.2227L72.6699 20.1387H74.1543L74.7842 22.5557C74.8851 22.9886 74.9876 23.5859 75.0918 24.3477H75.1211C75.1341 24.1003 75.1911 23.708 75.292 23.1709L75.3701 22.7559L76.0439 20.1387H77.6846L78.3242 22.7559C78.3372 22.8275 78.3568 22.9333 78.3828 23.0732C78.4121 23.2132 78.4398 23.363 78.4658 23.5225C78.4919 23.6787 78.5146 23.8333 78.5342 23.9863C78.557 24.1361 78.57 24.2565 78.5732 24.3477H78.6025C78.6318 24.1133 78.6839 23.7926 78.7588 23.3857C78.8337 22.9756 78.8874 22.6989 78.9199 22.5557L79.5742 20.1387H81.0342L79.4619 25.5977H77.8408Z" fill="#ACACAC"/>
<path d="M84.1787 21.0957C83.863 21.0957 83.6156 21.1966 83.4365 21.3984C83.2575 21.597 83.1549 21.8802 83.1289 22.248H85.2188C85.2122 21.8802 85.1162 21.597 84.9307 21.3984C84.7451 21.1966 84.4945 21.0957 84.1787 21.0957ZM84.3887 25.6953C83.5098 25.6953 82.8229 25.4528 82.3281 24.9678C81.8333 24.4827 81.5859 23.7959 81.5859 22.9072C81.5859 21.9925 81.8138 21.2861 82.2695 20.7881C82.7285 20.2868 83.3617 20.0361 84.1689 20.0361C84.9404 20.0361 85.541 20.2559 85.9707 20.6953C86.4004 21.1348 86.6152 21.7419 86.6152 22.5166V23.2393H83.0947C83.111 23.6624 83.2363 23.9928 83.4707 24.2305C83.7051 24.4681 84.0339 24.5869 84.457 24.5869C84.7858 24.5869 85.0967 24.5527 85.3896 24.4844C85.6826 24.416 85.9886 24.307 86.3076 24.1572V25.3096C86.0472 25.4398 85.7689 25.5358 85.4727 25.5977C85.1764 25.6628 84.8151 25.6953 84.3887 25.6953Z" fill="#ACACAC"/>
<path d="M90.873 20.0361C91.0749 20.0361 91.2425 20.0508 91.376 20.0801L91.2637 21.4766C91.1432 21.444 90.9967 21.4277 90.8242 21.4277C90.349 21.4277 89.9779 21.5498 89.7109 21.7939C89.4473 22.0381 89.3154 22.3799 89.3154 22.8193V25.5977H87.8262V20.1387H88.9541L89.1738 21.0566H89.2471C89.4163 20.7507 89.6442 20.5049 89.9307 20.3193C90.2204 20.1305 90.5345 20.0361 90.873 20.0361Z" fill="#ACACAC"/>
<path d="M94.6279 21.0957C94.3122 21.0957 94.0648 21.1966 93.8857 21.3984C93.7067 21.597 93.6042 21.8802 93.5781 22.248H95.668C95.6615 21.8802 95.5654 21.597 95.3799 21.3984C95.1943 21.1966 94.9437 21.0957 94.6279 21.0957ZM94.8379 25.6953C93.959 25.6953 93.2721 25.4528 92.7773 24.9678C92.2826 24.4827 92.0352 23.7959 92.0352 22.9072C92.0352 21.9925 92.263 21.2861 92.7188 20.7881C93.1777 20.2868 93.8109 20.0361 94.6182 20.0361C95.3896 20.0361 95.9902 20.2559 96.4199 20.6953C96.8496 21.1348 97.0645 21.7419 97.0645 22.5166V23.2393H93.5439C93.5602 23.6624 93.6855 23.9928 93.9199 24.2305C94.1543 24.4681 94.4831 24.5869 94.9062 24.5869C95.235 24.5869 95.5459 24.5527 95.8389 24.4844C96.1318 24.416 96.4378 24.307 96.7568 24.1572V25.3096C96.4964 25.4398 96.2181 25.5358 95.9219 25.5977C95.6257 25.6628 95.2643 25.6953 94.8379 25.6953Z" fill="#ACACAC"/>
<path d="M100.004 25.6953C99.3626 25.6953 98.8581 25.4463 98.4902 24.9482C98.1257 24.4502 97.9434 23.7601 97.9434 22.8779C97.9434 21.9827 98.1289 21.2861 98.5 20.7881C98.8743 20.2868 99.3887 20.0361 100.043 20.0361C100.73 20.0361 101.254 20.3031 101.615 20.8369H101.664C101.589 20.43 101.552 20.0671 101.552 19.748V18H103.046V25.5977H101.903L101.615 24.8896H101.552C101.213 25.4268 100.697 25.6953 100.004 25.6953ZM100.526 24.5088C100.907 24.5088 101.186 24.3981 101.361 24.1768C101.54 23.9554 101.638 23.5794 101.654 23.0488V22.8877C101.654 22.3018 101.563 21.8818 101.381 21.6279C101.202 21.374 100.909 21.2471 100.502 21.2471C100.17 21.2471 99.9111 21.3887 99.7256 21.6719C99.5433 21.9518 99.4521 22.3604 99.4521 22.8975C99.4521 23.4346 99.5449 23.8382 99.7305 24.1084C99.916 24.3753 100.181 24.5088 100.526 24.5088Z" fill="#ACACAC"/>
<path d="M107.318 18.459H109.54C110.552 18.459 111.286 18.6038 111.742 18.8936C112.201 19.18 112.431 19.6374 112.431 20.2656C112.431 20.6921 112.33 21.042 112.128 21.3154C111.929 21.5889 111.664 21.7533 111.332 21.8086V21.8574C111.785 21.9583 112.11 22.1471 112.309 22.4238C112.51 22.7005 112.611 23.0684 112.611 23.5273C112.611 24.1784 112.375 24.6862 111.903 25.0508C111.435 25.4154 110.797 25.5977 109.989 25.5977H107.318V18.459ZM108.832 21.2861H109.711C110.121 21.2861 110.417 21.2227 110.6 21.0957C110.785 20.9688 110.878 20.7588 110.878 20.4658C110.878 20.1924 110.777 19.9971 110.575 19.8799C110.377 19.7594 110.061 19.6992 109.628 19.6992H108.832V21.2861ZM108.832 22.4873V24.3477H109.818C110.235 24.3477 110.543 24.2679 110.741 24.1084C110.94 23.9489 111.039 23.7048 111.039 23.376C111.039 22.7835 110.616 22.4873 109.77 22.4873H108.832Z" fill="#ACACAC"/>
<path d="M113.139 20.1387H114.77L115.8 23.21C115.888 23.4769 115.948 23.7926 115.98 24.1572H116.01C116.046 23.8219 116.116 23.5062 116.22 23.21L117.23 20.1387H118.827L116.518 26.2959C116.306 26.8656 116.003 27.292 115.609 27.5752C115.219 27.8584 114.761 28 114.237 28C113.98 28 113.728 27.9723 113.48 27.917V26.7354C113.66 26.7777 113.855 26.7988 114.066 26.7988C114.33 26.7988 114.56 26.7174 114.755 26.5547C114.953 26.3952 115.108 26.1527 115.219 25.8271L115.307 25.5586L113.139 20.1387Z" fill="#ACACAC"/>
<path d="M144.992 27.5404H136.904V35.5577H144.992V27.5404Z" fill="#007178"/>
<path d="M131.841 27.5404V27.5435C129.663 27.5656 127.904 29.3502 127.904 31.549C127.904 33.7495 129.663 35.5325 131.841 35.5561V35.5577H136.904V27.5404H131.841Z" fill="#ADE2E3"/>
<path d="M136.904 40.576H136.906C136.928 42.7355 138.728 44.4791 140.948 44.4791C143.168 44.4791 144.967 42.7355 144.991 40.576H144.992V35.5577H136.904V40.576Z" fill="#00AE9A"/>
<path d="M145 22.0449C145 24.2784 143.173 26.0897 140.919 26.0897C138.666 26.0897 136.839 24.2799 136.839 22.0449C136.839 19.8114 138.666 18 140.919 18C143.173 18 145 19.8114 145 22.0449Z" fill="#FFC629"/>
<path d="M15.8706 35.3672H17.5375L28.4064 58.6677H26.5059L23.5392 52.1893H9.76868L6.80037 58.6693H5L15.8706 35.3672ZM22.8051 50.6378L16.6698 37.2526L10.5012 50.6378H22.8051Z" fill="#007178"/>
<path d="M29.1377 56.5538L30.1054 55.2653C31.9725 56.6861 34.0399 57.4799 36.2073 57.4799C38.5082 57.4799 40.3086 56.2246 40.3086 54.2746V54.2084C40.3086 52.2254 38.1745 51.4977 35.8069 50.8377C33.0404 50.0439 29.9719 49.2185 29.9719 46.21V46.1439C29.9719 43.4347 32.2729 41.4832 35.5733 41.4832C37.6072 41.4832 39.9082 42.2109 41.6084 43.3339L40.7424 44.6885C39.1756 43.6647 37.3085 43.0031 35.5081 43.0031C33.1738 43.0031 31.6404 44.2585 31.6404 45.9454V46.0116C31.6404 47.8954 33.9413 48.59 36.3757 49.2831C39.1105 50.0439 41.9771 51.0346 41.9771 54.01V54.0761C41.9771 57.0846 39.3758 59.0015 36.1088 59.0015C33.6394 58.9999 30.9381 58.0076 29.1377 56.5538Z" fill="#007178"/>
<path d="M43.6074 56.5538L44.5751 55.2653C46.4423 56.6861 48.5096 57.4799 50.677 57.4799C52.9779 57.4799 54.7783 56.2246 54.7783 54.2746V54.2084C54.7783 52.2254 52.6442 51.4977 50.2766 50.8377C47.5101 50.0439 44.4417 49.2185 44.4417 46.21V46.1439C44.4417 43.4347 46.7426 41.4832 50.043 41.4832C52.077 41.4832 54.3779 42.2109 56.0781 43.3339L55.2121 44.6885C53.6453 43.6647 51.7782 43.0031 49.9778 43.0031C47.6436 43.0031 46.1101 44.2585 46.1101 45.9454V46.0116C46.1101 47.8954 48.4111 48.59 50.8455 49.2831C53.5802 50.0439 56.4468 51.0346 56.4468 54.01V54.0761C56.4468 57.0846 53.8455 59.0015 50.5785 59.0015C48.1091 58.9999 45.4078 58.0076 43.6074 56.5538Z" fill="#007178"/>
<path d="M60.5684 35.2034H62.6023V37.418H60.5684V35.2034ZM60.7686 41.8125H62.4021V58.6693H60.7686V41.8125Z" fill="#007178"/>
<path d="M66.2588 56.5538L67.2265 55.2653C69.0936 56.6861 71.1609 57.4799 73.3284 57.4799C75.6293 57.4799 77.4297 56.2246 77.4297 54.2746V54.2084C77.4297 52.2254 75.2956 51.4977 72.9279 50.8377C70.1614 50.0439 67.093 49.2185 67.093 46.21V46.1439C67.093 43.4347 69.3939 41.4832 72.6944 41.4832C74.7283 41.4832 77.0292 42.2109 78.7295 43.3339L77.8635 44.6885C76.2967 43.6647 74.4296 43.0031 72.6292 43.0031C70.2949 43.0031 68.7615 44.2585 68.7615 45.9454V46.0116C68.7615 47.8954 71.0624 48.59 73.4968 49.2831C76.2315 50.0439 79.0981 51.0346 79.0981 54.01V54.0761C79.0981 57.0846 76.4969 59.0015 73.2299 59.0015C70.7605 58.9999 68.0592 58.0076 66.2588 56.5538Z" fill="#007178"/>
<path d="M83.0883 54.3393V43.301H80.6221V41.8141H83.0898V36.4272H84.7234V41.8141H90.6918V43.301H84.7234V54.174C84.7234 56.587 86.1567 57.4455 88.1239 57.4455C88.9581 57.4455 89.6573 57.2801 90.6234 56.8501V58.37C89.7574 58.767 88.9232 58.9654 87.8569 58.9654C85.2223 58.967 83.0883 57.5447 83.0883 54.3393Z" fill="#007178"/>
<path d="M93.9668 35.5342H104.37C107.304 35.5342 109.604 36.3926 111.104 37.848C112.338 39.1034 113.038 40.8234 113.038 42.8379V42.9041C113.038 46.7048 110.737 48.9856 107.47 49.9102L113.772 58.6693H108.939L103.204 50.6048H103.137H98.0681V58.6693H93.9668V35.5342ZM104.071 47.0025C107.005 47.0025 108.873 45.4825 108.873 43.1356V43.0695C108.873 40.5903 107.073 39.2357 104.04 39.2357H98.0713V47.0025H104.071Z" fill="#00AE9A"/>
<path d="M120.798 49.8111L114.562 41.2173H118.964L123.032 46.968L127.1 41.2173H131.401L125.166 49.7118L131.668 58.6679H127.266L122.932 52.5533L118.63 58.6679H114.329L120.798 49.8111Z" fill="#00AE9A"/>
</svg>
