<?xml version="1.0" encoding="UTF-8"?><svg id="Layer_2" xmlns="http://www.w3.org/2000/svg" viewBox="0 0 273.06 45.25"><defs><style>.cls-1{fill:#222860;}.cls-2{fill:#3b97de;}.cls-3{fill:none;stroke:#3b97de;stroke-miterlimit:10;}</style></defs><g id="Layer_1-2"><g><path class="cls-1" d="M113.54,29.18h-7.68l-12.44-21.6h-.16c.05,1.36,.11,2.72,.18,4.08,.07,1.36,.13,2.72,.18,4.08v13.44h-5.4V.62h7.64l12.4,21.4h.12c-.05-1.31-.11-2.61-.16-3.92-.05-1.31-.09-2.63-.12-3.96V.62h5.44V29.18Z"/><path class="cls-1" d="M139.7,18.22c0,3.63-.95,6.43-2.86,8.4-1.91,1.97-4.5,2.96-7.78,2.96-2.03,0-3.83-.44-5.42-1.32s-2.83-2.17-3.74-3.86c-.91-1.69-1.36-3.75-1.36-6.18,0-3.63,.95-6.41,2.84-8.36,1.89-1.95,4.49-2.92,7.8-2.92,2.05,0,3.87,.44,5.44,1.32,1.57,.88,2.81,2.16,3.72,3.84,.91,1.68,1.36,3.72,1.36,6.12Zm-15.08,0c0,2.16,.35,3.79,1.06,4.9,.71,1.11,1.86,1.66,3.46,1.66s2.71-.55,3.42-1.66c.71-1.11,1.06-2.74,1.06-4.9s-.35-3.78-1.06-4.86c-.71-1.08-1.86-1.62-3.46-1.62s-2.71,.54-3.42,1.62c-.71,1.08-1.06,2.7-1.06,4.86Z"/><path class="cls-1" d="M148.62,29.18l-8.32-21.84h6.24l4.2,12.44c.24,.75,.43,1.52,.56,2.32,.13,.8,.23,1.52,.28,2.16h.16c.08-1.44,.37-2.93,.88-4.48l4.2-12.44h6.24l-8.32,21.84h-6.12Z"/><path class="cls-1" d="M185.62,18.22c0,3.63-.95,6.43-2.86,8.4-1.91,1.97-4.5,2.96-7.78,2.96-2.03,0-3.83-.44-5.42-1.32-1.59-.88-2.83-2.17-3.74-3.86-.91-1.69-1.36-3.75-1.36-6.18,0-3.63,.95-6.41,2.84-8.36,1.89-1.95,4.49-2.92,7.8-2.92,2.05,0,3.87,.44,5.44,1.32s2.81,2.16,3.72,3.84c.91,1.68,1.36,3.72,1.36,6.12Zm-15.08,0c0,2.16,.35,3.79,1.06,4.9,.71,1.11,1.86,1.66,3.46,1.66s2.71-.55,3.42-1.66c.71-1.11,1.06-2.74,1.06-4.9s-.35-3.78-1.06-4.86c-.71-1.08-1.86-1.62-3.46-1.62s-2.71,.54-3.42,1.62c-.71,1.08-1.06,2.7-1.06,4.86Z"/><path class="cls-2" d="M203.18,2.3c-2.35,0-4.36,.53-6.04,1.58-1.68,1.05-2.97,2.52-3.86,4.4s-1.34,4.07-1.34,6.58,.41,4.79,1.22,6.68c.81,1.89,2.02,3.36,3.62,4.4,1.6,1.04,3.6,1.56,6,1.56,1.39,0,2.66-.11,3.82-.32,1.16-.21,2.26-.48,3.3-.8v2c-.99,.37-2.07,.67-3.26,.88-1.19,.21-2.55,.32-4.1,.32-2.88,0-5.29-.61-7.22-1.84-1.93-1.23-3.39-2.95-4.36-5.16-.97-2.21-1.46-4.8-1.46-7.76s.54-5.34,1.62-7.54c1.08-2.2,2.64-3.93,4.68-5.18,2.04-1.25,4.5-1.88,7.38-1.88s5.31,.53,7.52,1.6l-.92,2c-2.08-1.01-4.28-1.52-6.6-1.52Z"/><path class="cls-2" d="M222.58,7.54c2.4,0,4.19,.59,5.36,1.76,1.17,1.17,1.76,3.03,1.76,5.56v14.32h-1.72l-.44-3.6h-.08c-.75,1.2-1.68,2.17-2.8,2.9-1.12,.73-2.67,1.1-4.64,1.1s-3.63-.51-4.82-1.52c-1.19-1.01-1.78-2.49-1.78-4.44,0-2.11,.86-3.72,2.58-4.84s4.25-1.75,7.58-1.88l3.88-.2v-1.48c0-2.11-.42-3.59-1.26-4.46-.84-.87-2.07-1.3-3.7-1.3-1.09,0-2.15,.14-3.16,.42-1.01,.28-2.03,.69-3.04,1.22l-.72-1.84c.99-.51,2.08-.92,3.28-1.24,1.2-.32,2.44-.48,3.72-.48Zm4.88,10.92l-3.6,.16c-2.72,.11-4.75,.57-6.08,1.38-1.33,.81-2,2.03-2,3.66,0,1.31,.41,2.3,1.24,2.98s1.96,1.02,3.4,1.02c2.21,0,3.93-.63,5.14-1.88,1.21-1.25,1.85-3.01,1.9-5.28v-2.04Z"/><path class="cls-2" d="M244.82,7.54c1.12,0,2.08,.12,2.88,.36l-.32,2.08c-.43-.11-.85-.19-1.28-.24-.43-.05-.88-.08-1.36-.08-1.97,0-3.53,.71-4.66,2.14-1.13,1.43-1.7,3.33-1.7,5.7v11.68h-2.28V7.9h1.92l.24,4h.12c.53-1.2,1.34-2.23,2.42-3.08,1.08-.85,2.42-1.28,4.02-1.28Z"/><path class="cls-2" d="M258.74,7.5c1.81,0,3.33,.42,4.56,1.26s2.15,1.99,2.76,3.46c.61,1.47,.92,3.15,.92,5.04v1.6h-15.2c0,2.8,.65,4.95,1.96,6.46,1.31,1.51,3.19,2.26,5.64,2.26,1.33,0,2.49-.11,3.48-.32,.99-.21,2.07-.59,3.24-1.12v2.08c-1.07,.48-2.12,.83-3.16,1.04-1.04,.21-2.25,.32-3.64,.32-3.17,0-5.61-.97-7.32-2.92-1.71-1.95-2.56-4.6-2.56-7.96,0-2.16,.37-4.09,1.1-5.78s1.79-3.02,3.18-3.98c1.39-.96,3.07-1.44,5.04-1.44Zm-.04,1.92c-1.95,0-3.53,.65-4.74,1.96-1.21,1.31-1.93,3.16-2.14,5.56h12.76c0-2.24-.47-4.05-1.42-5.44-.95-1.39-2.43-2.08-4.46-2.08Z"/><path class="cls-2" d="M269.86,10.27c-.47,0-.89-.08-1.29-.24s-.73-.39-1.01-.68c-.29-.29-.51-.63-.66-1.01s-.24-.81-.24-1.26,.08-.89,.25-1.28c.16-.39,.39-.73,.68-1.01,.29-.29,.63-.51,1.02-.67s.81-.24,1.25-.24,.88,.08,1.26,.25c.39,.17,.73,.4,1.02,.69,.29,.29,.52,.64,.68,1.02,.16,.39,.24,.8,.24,1.24s-.08,.88-.25,1.26-.39,.73-.68,1.01c-.29,.29-.63,.51-1.01,.68s-.81,.24-1.26,.24Zm0-.34c.4,0,.78-.07,1.12-.22,.34-.15,.64-.35,.9-.61,.26-.26,.46-.57,.6-.91,.15-.35,.22-.72,.22-1.12s-.07-.76-.21-1.1c-.14-.34-.34-.65-.59-.91s-.56-.47-.91-.62c-.35-.15-.72-.23-1.13-.23s-.79,.07-1.13,.21c-.35,.14-.65,.34-.91,.6-.26,.26-.46,.56-.6,.91-.14,.35-.21,.72-.21,1.13s.07,.76,.21,1.1c.14,.34,.33,.65,.59,.91,.26,.27,.56,.47,.91,.62s.73,.22,1.15,.22Zm-1.12-.96v-3.78h1.08c.41,0,.73,.09,.96,.27s.34,.45,.34,.82c0,.28-.07,.5-.22,.67-.15,.17-.32,.29-.52,.36l1.01,1.66h-.52l-.92-1.56h-.76v1.56h-.45Zm.44-1.92h.61c.26,0,.48-.06,.64-.19,.17-.13,.25-.31,.25-.56s-.08-.44-.24-.55c-.16-.11-.37-.17-.65-.17h-.62v1.47Z"/></g><line class="cls-3" x1="72.28" x2="72.28" y2="43.64"/><g><g><g><path class="cls-1" d="M29.18,42.64v-3.94c0-.67-.01-1.88-2.32-1.88-.87,0-1.47,.17-1.79,.27-.39,.12-.52,.27-.52,.47v5.09c0,.2,.06,.22,.22,.22h.56c.16,0,.24-.02,.24-.23v-4.68c0-.26,.43-.52,1.24-.52,1.34,0,1.34,.86,1.34,1.39v3.81c0,.21,.07,.23,.25,.23h.63c.13-.02,.14-.13,.14-.23Z"/><path class="cls-1" d="M35.26,39.94c0-1.37-.44-2.25-1.1-2.7-.41-.29-.97-.42-1.5-.42s-1.08,.14-1.49,.42c-.67,.44-1.1,1.32-1.1,2.7s.44,2.24,1.1,2.68c.41,.29,.97,.42,1.49,.42s1.08-.14,1.5-.42c.66-.45,1.1-1.32,1.1-2.68Zm-1.06,0c0,1.07-.22,1.77-.54,2.07-.31,.3-.6,.38-1,.38s-.69-.08-1-.38c-.32-.3-.54-.99-.54-2.07s.22-1.78,.54-2.08c.31-.29,.6-.37,1-.37s.69,.08,1,.37c.32,.3,.54,.99,.54,2.08Z"/><path class="cls-1" d="M39.35,37.41c0-.41-.7-.59-1.49-.59-.62,0-1.01,.1-1.31,.18-.39,.11-.53,.27-.53,.47v5.21c0,.18,.07,.19,.23,.19h.58c.14,0,.21,0,.21-.19v-4.77c0-.31,.24-.52,.58-.52,.74,0,.85,.54,1.24,.54,.26,0,.48-.19,.48-.52Z"/><path class="cls-1" d="M44.4,42.24v-7.17c0-.21-.06-.23-.23-.23h-.56c-.19,0-.22,.07-.22,.25v2.07c-.36-.19-.71-.31-1.25-.31-1.78,0-2.7,1.68-2.7,3.08,0,2.08,1.16,3.11,2.91,3.11,.86,0,2.05-.42,2.05-.8Zm-1.01-.33c0,.3-.48,.46-1.01,.46-1.11,0-1.91-.92-1.91-2.51,0-1.38,.76-2.31,1.81-2.31,.6,0,.88,.18,1.1,.37v4Z"/><path class="cls-1" d="M46.89,35.31c-.01-.34-.29-.57-.61-.57-.37,0-.63,.25-.63,.61,0,.32,.23,.59,.62,.59s.63-.31,.62-.63Zm-.11,7.36v-5.5c0-.18-.05-.22-.23-.22h-.6c-.2,0-.2,.07-.2,.22v5.5c0,.16,0,.2,.17,.2h.62c.17,0,.23,0,.23-.2Z"/><path class="cls-1" d="M56.97,42.75c0-.06-.03-.09-.08-.15l-2.18-2.86h-.01c.76-.57,1.56-1.46,2.05-2.42,.05-.11,.06-.16,.06-.23,0-.1-.06-.13-.21-.13h-.54c-.2,0-.3,0-.36,.17-.32,.98-1.17,2.03-2.03,2.53-.03,.02-.04,.06-.04,.07,0,.02,.01,.05,.02,.06l2.04,2.91c.12,.17,.16,.17,.34,.17h.78s.15,0,.15-.13Zm-3.5-.04v-7.73c0-.16-.08-.16-.22-.16h-.61c-.13,0-.2,.02-.2,.18v7.7c0,.16,.03,.18,.2,.18h.61c.16,0,.22,0,.22-.17Z"/><path class="cls-1" d="M51.64,41.27c0-1.92-2.83-1.62-2.83-2.89,0-.43,.34-.88,.99-.88s.84,.44,1.18,.44c.17,0,.41-.1,.41-.4,0-.43-.75-.68-1.54-.68-1.05,0-1.96,.56-1.96,1.62,0,.98,.7,1.41,1.54,1.76,.67,.28,1.29,.53,1.29,1.16,0,.47-.38,1-1.18,1s-1.04-.59-1.43-.59c-.19,0-.44,.08-.44,.38,0,.47,.92,.87,1.85,.87,1.03,0,2.11-.55,2.11-1.77Z"/><path class="cls-1" d="M4.63,42.64v-3.94c0-.67-.01-1.88-2.32-1.88-.87,0-1.47,.17-1.79,.27-.39,.12-.51,.27-.51,.47v5.09c0,.2,.06,.22,.22,.22H.78c.16,0,.24-.02,.24-.23v-4.68c0-.26,.44-.52,1.24-.52,1.34,0,1.34,.86,1.34,1.39v3.81c0,.21,.07,.23,.25,.23h.63c.13-.02,.14-.13,.14-.23Z"/><path class="cls-1" d="M10.7,39.94c0-1.37-.44-2.25-1.1-2.7-.41-.29-.97-.42-1.49-.42s-1.08,.14-1.49,.42c-.67,.44-1.1,1.32-1.1,2.7s.44,2.24,1.1,2.68c.41,.29,.96,.42,1.49,.42s1.08-.14,1.49-.42c.66-.45,1.1-1.32,1.1-2.68Zm-1.06,0c0,1.07-.22,1.77-.54,2.07-.31,.3-.6,.38-1,.38s-.69-.08-1-.38c-.32-.3-.54-.99-.54-2.07s.22-1.78,.54-2.08c.31-.29,.6-.37,1-.37s.69,.08,1,.37c.32,.3,.54,.99,.54,2.08Z"/><path class="cls-1" d="M21.19,39.94c0-1.37-.44-2.25-1.1-2.7-.41-.29-.96-.42-1.49-.42s-1.08,.14-1.49,.42c-.66,.44-1.1,1.32-1.1,2.7s.44,2.24,1.1,2.68c.41,.29,.96,.42,1.49,.42s1.08-.14,1.49-.42c.67-.45,1.1-1.32,1.1-2.68Zm-1.06,0c0,1.07-.22,1.77-.54,2.07-.31,.3-.6,.38-1,.38s-.69-.08-1-.38c-.32-.3-.54-.99-.54-2.07s.22-1.78,.54-2.08c.31-.29,.6-.37,1-.37s.69,.08,1,.37c.32,.3,.54,.99,.54,2.08Z"/><path class="cls-1" d="M15.91,37.07c0-.12-.09-.12-.15-.12h-.57c-.08,.01-.1,.04-.14,.16l-1.49,4.35-1.55-4.33c-.06-.16-.08-.18-.25-.18h-.7s-.16,0-.16,.14c0,.05,.02,.1,.05,.16l2.08,5.44c.06,.14,.08,.17,.17,.18h.45c.14,0,.16,0,.22-.17l2.01-5.45c.05-.14,.05-.16,.05-.18Z"/></g><path class="cls-1" d="M57.85,33.09h.36c.19,0,.5,0,.5,.29s-.33,.3-.48,.3h-.39v-.59Zm-.32,1.7h.32v-.83h.19c.26,0,.35,.1,.59,.52l.18,.31h.39l-.24-.38c-.25-.39-.35-.45-.46-.5h0c.41-.03,.56-.34,.56-.56,0-.16-.08-.3-.19-.39-.16-.14-.42-.14-.65-.14h-.68v1.97Zm.79-2.82c-1.01,0-1.84,.81-1.84,1.83s.82,1.83,1.84,1.83,1.84-.82,1.84-1.83-.83-1.83-1.84-1.83Zm0,.31c.85,0,1.54,.68,1.54,1.53s-.69,1.53-1.54,1.53-1.53-.69-1.53-1.53,.69-1.53,1.53-1.53Z"/></g><g><path class="cls-1" d="M14.87,13.9c.47,.67,1.42-.45,1.34-.65-.08-.21-1.81-.02-1.34,.65Z"/><path class="cls-1" d="M18.62,9.59c2.5,0,4.52-2.02,4.52-4.5S21.11,.6,18.62,.6s-4.52,2.01-4.52,4.49,2.02,4.5,4.52,4.5Zm.12-7.94c1.65,0,2.99,1.33,2.99,2.98s-1.34,2.98-2.99,2.98-3-1.33-3-2.98,1.34-2.98,3-2.98Z"/><path class="cls-1" d="M41.31,17.53c-.61-2.84-3.08-2.93-4.4-2.83-1.36,.1-3.94,.51-6.58,.51-3.58,0-7.59-1-10.67-2.43-.53-.25-.27-.35-.03-.48,1.16-.62,2.16-1.2,2.77-2.19,.47-.76,.29-1-.23-.58-1.4,1.15-3.38,1.79-5.61,1.01-2.22-.79-3.09-2.92-3.28-3.46-.2-.54-.47-.58-.47,.21,0,1.98,.88,3.19,1.18,3.53,.3,.34,.43,.68,.27,.88-.43,.52-.91,1.08-.93,1.31-.02,.24,0,.37-.09,.64-.1,.28-.46,.67-1,1.36-.31,.39-.12,.81,.14,1.1,.32,.35,.52,.75,.9,.93,.39,.18,.75,.05,1.2,.13,.44,.08,1,.34,1.44,1.12,.63,1.13,1.32,2.89,2.55,4.35,.55,.65,.55,1.82,.55,2.22,.04,3.42-1.77,6.65-2.92,8.7-.27,.49-.22,.89,.15,.89,.42,0,1.98,0,2.23,0,.3,0,.47-.31,.49-.63,.19-2.79,1.78-7.92,2.98-8.8,2.02,1.25,4.02,3.93,3.04,8.62-.05,.25-.29,.82,.31,.82h1.94c.25,0,.65-.1,.62-.55-.1-1.83-1.64-5.7-2.05-7.97-.26-1.44,.9-4,5.24-2.04,1.68-1.49,3.87-.58,2.93,2.29-.92,2.84-1.73,4.11-4.89,7.46-.36,.38-.38,.82,.19,.82,.28,0,1.74,0,2.03,0,.44,0,.61-.12,.75-.47,.13-.35,1.58-4.91,4.42-7.04,.22-.16,.41-.9,.85-2.55,1.39,1.79,1.55,5.07-.79,9.28-.25,.44-.09,.78,.19,.78h1.84c.34,0,.44-.19,.58-.7,.16-.63,.22-.93,.44-1.54,.14-.38,.2-.44,1.66-.42,.47,0,.44-.24,.44-.63,0-5.7,.04-11.6-.4-13.61Zm-5.19-1.89c.48,.87,.5,1.38,.37,1.81-.14,.44-.75,.68-.88,.63-.02-.93-.27-1.64-.71-2.28,.41-.06,.81-.12,1.22-.17Zm-3.78,.45c.28,1.03,.24,2.38-.15,2.77-.61,.62-3.4,.5-4.2,.37-.21-.03-.44-.07-.55-.63-.12-.67-.15-1.88-.19-2.68,1.68,.22,3.39,.28,5.08,.17Zm-9.9,1.95c.23-.75,.46-2.01,.58-3.03,.54,.16,1.08,.31,1.63,.44-.37,2.34-1.11,3-1.5,3.16-.3,.12-.94,.19-.72-.56Zm-4.98,1.23c-.47-.62-1.09-2.12-1.63-2.54-1.03-.81-1.91-.17-2.32-.65-.43-.51-.6-.55-.2-1.04,0,0,.45-.6,.64-.85s.15-.74,.23-.95c.07-.21,.54-.83,1-1.23,.51-.44,.93-.25,2.52,.71,1.94,1.17,2.53,.91,1.87,1.96-.42,.66-1.79,2.43-2.12,4.59Zm21.36-.71c-.11,1.75-.5,4.23-1.1,4.49-.61,.27-1.55-1.34-6.47-1.43-3.5-.06-6.18,.4-6.67,3.57-.04,.23-.17,.19-.27,.08-.96-1.04-1.83-1.5-3.25-2.32-1.41-.82-2.36-1.94-2.54-3.04-.18-1.1,.22-2.57,2.22-5.26,.28-.37,.33-.34,1.44,.08-.09,1.8-.53,2.81-.72,3.74-.19,.94,.86,1.15,1.79,.93s1.81-1.19,2.19-3.78c.36,.07,.65,.13,1.02,.18,.05,2.69,.21,3.31,.32,3.56,.22,.5,.72,.66,1.13,.69,2.13,.17,4.19,.1,4.93-.62,.74-.72,.48-2.47,.28-3.42,.33-.03,.62-.06,.95-.11,.69,.81,.79,1.68,.79,2.25,0,.62,.69,.94,1.65,.28s.86-1.82,.34-2.87c2.18-.2,2.07,1.24,1.96,2.99Zm1.62,8.59c-.03,.26-.28,.46-.34-.07-.08-.68-.43-2.23-.55-2.88-.11-.61,.22-2.47,.34-4.02,.01-.13,.16-.13,.26-.03,.66,.69,.43,5.95,.29,7Z"/></g></g><g><path class="cls-1" d="M92.65,40.81c0,.65-.24,1.16-.71,1.53-.47,.37-1.12,.55-1.94,.55-.4,0-.78-.03-1.13-.1-.35-.06-.65-.16-.89-.28v-1.05c.27,.12,.59,.23,.96,.33,.37,.1,.74,.15,1.13,.15,.49,0,.86-.1,1.11-.29,.25-.19,.37-.45,.37-.77,0-.23-.05-.42-.16-.57-.11-.15-.29-.3-.53-.43-.24-.13-.56-.28-.95-.43-.36-.14-.67-.3-.95-.48s-.5-.41-.66-.69-.24-.61-.24-1c0-.6,.22-1.07,.66-1.41s1.01-.51,1.72-.51c.4,0,.76,.04,1.1,.12s.66,.19,.97,.32l-.35,.91c-.28-.12-.57-.21-.86-.29-.29-.07-.59-.11-.9-.11-.4,0-.71,.09-.92,.27-.21,.18-.32,.41-.32,.7,0,.23,.05,.42,.15,.57,.1,.15,.27,.29,.49,.42,.22,.13,.52,.26,.89,.4,.41,.16,.76,.34,1.05,.52,.29,.18,.51,.4,.66,.66,.15,.26,.22,.58,.22,.96Z"/><path class="cls-1" d="M96.1,37.16c.69,0,1.21,.15,1.55,.46,.34,.3,.52,.78,.52,1.43v3.74h-.77l-.21-.77h-.04c-.24,.3-.49,.52-.75,.66-.26,.14-.63,.21-1.09,.21-.5,0-.91-.13-1.24-.41-.33-.27-.49-.69-.49-1.27s.21-1,.64-1.29,1.08-.45,1.95-.48l.94-.03v-.31c0-.4-.09-.69-.28-.86-.18-.17-.44-.25-.78-.25-.28,0-.55,.04-.81,.12s-.51,.18-.75,.3l-.35-.79c.26-.14,.56-.25,.9-.34,.34-.09,.69-.14,1.06-.14Zm.99,2.97l-.74,.02c-.63,.03-1.06,.13-1.31,.32-.24,.18-.36,.44-.36,.76,0,.29,.08,.5,.26,.62,.17,.13,.39,.19,.67,.19,.42,0,.78-.12,1.06-.36s.43-.6,.43-1.08v-.48Z"/><path class="cls-1" d="M101.08,42.79l-2.09-5.52h1.15l1.15,3.23c.07,.22,.14,.46,.21,.72,.08,.26,.13,.47,.15,.65h.04c.03-.17,.08-.39,.16-.65,.08-.26,.16-.5,.23-.71l1.15-3.23h1.15l-2.1,5.52h-1.2Z"/><path class="cls-1" d="M105.79,35.16c.16,0,.31,.05,.43,.14s.18,.26,.18,.48-.06,.38-.18,.48c-.12,.1-.27,.15-.43,.15s-.32-.05-.44-.15c-.12-.1-.18-.26-.18-.48s.06-.39,.18-.48,.27-.14,.44-.14Zm.53,2.1v5.52h-1.09v-5.52h1.09Z"/><path class="cls-1" d="M110.82,37.16c.64,0,1.13,.16,1.48,.48s.51,.84,.51,1.55v3.6h-1.08v-3.44c0-.86-.38-1.29-1.14-1.29-.56,0-.95,.17-1.16,.5s-.32,.82-.32,1.45v2.79h-1.09v-5.52h.86l.15,.74h.06c.18-.29,.42-.5,.73-.63s.64-.21,.99-.21Z"/><path class="cls-1" d="M116.39,37.16c.36,0,.68,.07,.96,.21s.53,.34,.73,.62h.05l.12-.73h.88v5.6c0,1.59-.85,2.39-2.55,2.39-.4,0-.76-.03-1.1-.08s-.64-.14-.92-.26v-.95c.29,.14,.61,.25,.96,.32,.35,.07,.73,.11,1.12,.11,.44,0,.79-.13,1.04-.38,.25-.26,.38-.62,.38-1.08v-.18c0-.09,0-.21,0-.35,0-.14,.01-.25,.02-.33h-.04c-.19,.29-.43,.5-.7,.63-.28,.13-.6,.2-.96,.2-.7,0-1.24-.25-1.63-.75-.39-.5-.59-1.2-.59-2.1s.2-1.59,.59-2.11c.39-.52,.94-.77,1.63-.77Zm.23,.9c-.43,0-.76,.17-.99,.51-.23,.34-.34,.83-.34,1.48s.11,1.13,.34,1.46c.23,.33,.57,.5,1.01,.5,.51,0,.88-.14,1.11-.42,.24-.28,.35-.73,.35-1.36v-.21c0-.71-.12-1.22-.36-1.52-.24-.3-.62-.46-1.13-.46Z"/><path class="cls-1" d="M124.5,41.23c0,.55-.2,.96-.59,1.24s-.95,.42-1.66,.42c-.39,0-.72-.03-1-.08-.28-.05-.53-.14-.76-.26v-.95c.24,.12,.52,.22,.84,.31,.33,.09,.64,.14,.95,.14,.41,0,.71-.06,.89-.19s.27-.3,.27-.52c0-.12-.03-.23-.1-.33-.07-.1-.2-.2-.38-.31-.19-.11-.46-.23-.83-.36-.36-.14-.65-.28-.9-.42s-.43-.31-.56-.51-.19-.45-.19-.75c0-.48,.19-.85,.58-1.1,.39-.26,.9-.38,1.53-.38,.33,0,.65,.03,.95,.1s.59,.16,.87,.29l-.36,.83c-.24-.1-.49-.19-.74-.26-.25-.07-.51-.11-.77-.11-.67,0-1,.19-1,.58,0,.13,.04,.24,.12,.34,.08,.1,.22,.19,.41,.29,.2,.1,.47,.21,.82,.35,.33,.13,.62,.27,.87,.41s.43,.31,.56,.51c.13,.2,.19,.45,.19,.75Z"/><path class="cls-2" d="M131.04,35.03h1.1v10.09h-1.1v-10.09Z"/><path class="cls-1" d="M143.37,36.32c-.72,0-1.29,.25-1.71,.75-.41,.5-.62,1.19-.62,2.07s.19,1.55,.57,2.05c.38,.5,.96,.75,1.74,.75,.31,0,.62-.03,.91-.09,.29-.06,.59-.13,.89-.23v.95c-.29,.11-.58,.19-.88,.24-.3,.05-.65,.08-1.05,.08-.75,0-1.38-.16-1.87-.47-.5-.31-.86-.75-1.11-1.31-.24-.56-.36-1.22-.36-1.98s.13-1.39,.4-1.95c.27-.56,.67-1.01,1.18-1.33,.52-.32,1.15-.48,1.91-.48,.37,0,.73,.04,1.08,.12,.35,.08,.67,.19,.97,.33l-.41,.92c-.24-.11-.5-.21-.77-.29-.27-.08-.57-.13-.88-.13Z"/><path class="cls-1" d="M151.48,40.02c0,.92-.24,1.62-.71,2.12-.47,.5-1.11,.75-1.91,.75-.5,0-.94-.11-1.33-.33s-.69-.55-.91-.97c-.22-.43-.33-.95-.33-1.56,0-.92,.23-1.62,.7-2.12,.46-.5,1.1-.74,1.91-.74,.51,0,.95,.11,1.34,.33,.39,.22,.69,.54,.91,.97,.22,.42,.33,.94,.33,1.56Zm-4.07,0c0,.62,.12,1.11,.35,1.46,.24,.35,.61,.52,1.12,.52s.89-.17,1.12-.52c.24-.35,.35-.83,.35-1.46s-.12-1.11-.35-1.45c-.24-.34-.61-.51-1.13-.51s-.88,.17-1.12,.51-.35,.82-.35,1.45Z"/><path class="cls-1" d="M153.89,42.79l-2.09-5.52h1.15l1.15,3.23c.07,.22,.14,.46,.22,.72,.07,.26,.13,.47,.15,.65h.04c.03-.17,.08-.39,.16-.65,.08-.26,.16-.5,.23-.71l1.15-3.23h1.15l-2.1,5.52h-1.2Z"/><path class="cls-1" d="M160.22,37.16c.72,0,1.29,.22,1.71,.67,.42,.45,.62,1.06,.62,1.83v.59h-3.71c.01,.57,.16,1,.45,1.3,.28,.3,.68,.45,1.19,.45,.36,0,.67-.03,.95-.1,.28-.07,.56-.16,.86-.29v.9c-.28,.13-.56,.22-.84,.28-.28,.06-.62,.09-1,.09-.53,0-1-.11-1.41-.32s-.73-.53-.96-.94c-.23-.42-.34-.94-.34-1.56s.1-1.15,.31-1.58c.21-.43,.5-.76,.87-.99,.37-.23,.81-.34,1.31-.34Zm0,.84c-.39,0-.7,.13-.94,.38s-.37,.61-.42,1.08h2.6c0-.43-.11-.78-.31-1.05-.2-.27-.51-.41-.94-.41Z"/><path class="cls-1" d="M166.63,37.16c.22,0,.42,.02,.6,.05l-.11,1.01c-.18-.05-.36-.07-.55-.07-.28,0-.54,.07-.78,.21s-.43,.33-.58,.59c-.15,.26-.22,.57-.22,.93v2.91h-1.09v-5.52h.86l.14,.98h.04c.17-.29,.4-.55,.69-.76,.29-.21,.62-.32,.99-.32Z"/><path class="cls-1" d="M170.2,37.16c.69,0,1.21,.15,1.55,.46,.34,.3,.52,.78,.52,1.43v3.74h-.77l-.22-.77h-.04c-.24,.3-.49,.52-.75,.66-.26,.14-.63,.21-1.09,.21-.5,0-.91-.13-1.24-.41-.33-.27-.49-.69-.49-1.27s.21-1,.64-1.29c.43-.29,1.08-.45,1.95-.48l.94-.03v-.31c0-.4-.09-.69-.28-.86-.18-.17-.44-.25-.78-.25-.28,0-.55,.04-.81,.12s-.51,.18-.75,.3l-.35-.79c.26-.14,.56-.25,.9-.34,.34-.09,.69-.14,1.06-.14Zm.99,2.97l-.74,.02c-.63,.03-1.06,.13-1.31,.32s-.36,.44-.36,.76c0,.29,.09,.5,.26,.62s.39,.19,.67,.19c.42,0,.78-.12,1.06-.36,.28-.24,.43-.6,.43-1.08v-.48Z"/><path class="cls-1" d="M175.85,37.16c.36,0,.68,.07,.96,.21s.53,.34,.73,.62h.05l.12-.73h.88v5.6c0,1.59-.85,2.39-2.55,2.39-.4,0-.76-.03-1.1-.08s-.64-.14-.92-.26v-.95c.29,.14,.61,.25,.96,.32,.35,.07,.73,.11,1.12,.11,.44,0,.79-.13,1.04-.38,.25-.26,.37-.62,.37-1.08v-.18c0-.09,0-.21,.01-.35s.01-.25,.02-.33h-.04c-.19,.29-.43,.5-.7,.63-.28,.13-.6,.2-.96,.2-.7,0-1.24-.25-1.63-.75-.39-.5-.59-1.2-.59-2.1s.2-1.59,.59-2.11c.39-.52,.94-.77,1.63-.77Zm.23,.9c-.43,0-.76,.17-.99,.51-.23,.34-.34,.83-.34,1.48s.11,1.13,.34,1.46c.23,.33,.57,.5,1.01,.5,.51,0,.88-.14,1.11-.42,.24-.28,.35-.73,.35-1.36v-.21c0-.71-.12-1.22-.36-1.52-.24-.3-.62-.46-1.13-.46Z"/><path class="cls-1" d="M182.47,37.16c.72,0,1.29,.22,1.71,.67,.42,.45,.62,1.06,.62,1.83v.59h-3.71c.01,.57,.16,1,.45,1.3,.28,.3,.68,.45,1.19,.45,.36,0,.67-.03,.95-.1,.28-.07,.56-.16,.86-.29v.9c-.28,.13-.56,.22-.84,.28-.28,.06-.62,.09-1,.09-.53,0-1-.11-1.41-.32s-.73-.53-.96-.94c-.23-.42-.34-.94-.34-1.56s.1-1.15,.31-1.58c.21-.43,.5-.76,.87-.99,.37-.23,.81-.34,1.31-.34Zm0,.84c-.39,0-.7,.13-.94,.38s-.37,.61-.42,1.08h2.6c0-.43-.11-.78-.31-1.05-.2-.27-.51-.41-.94-.41Z"/><path class="cls-2" d="M191.41,35.03h1.1v10.09h-1.1v-10.09Z"/><path class="cls-1" d="M204.81,40.81c0,.65-.24,1.16-.71,1.53s-1.12,.55-1.94,.55c-.4,0-.78-.03-1.13-.1-.35-.06-.65-.16-.89-.28v-1.05c.27,.12,.59,.23,.96,.33,.37,.1,.75,.15,1.13,.15,.49,0,.86-.1,1.11-.29,.25-.19,.37-.45,.37-.77,0-.23-.05-.42-.16-.57-.11-.15-.29-.3-.53-.43-.24-.13-.56-.28-.95-.43-.36-.14-.67-.3-.95-.48s-.5-.41-.66-.69-.24-.61-.24-1c0-.6,.22-1.07,.66-1.41,.44-.34,1.01-.51,1.72-.51,.4,0,.76,.04,1.1,.12,.34,.08,.66,.19,.97,.32l-.35,.91c-.28-.12-.57-.21-.86-.29-.29-.07-.59-.11-.9-.11-.4,0-.71,.09-.92,.27s-.32,.41-.32,.7c0,.23,.05,.42,.15,.57,.1,.15,.27,.29,.49,.42,.22,.13,.52,.26,.89,.4,.41,.16,.76,.34,1.05,.52,.29,.18,.51,.4,.66,.66,.15,.26,.22,.58,.22,.96Z"/><path class="cls-1" d="M210.88,37.26v5.52h-.87l-.15-.73h-.05c-.18,.29-.42,.5-.74,.63-.31,.13-.65,.2-1,.2-.65,0-1.14-.16-1.49-.48-.34-.32-.51-.83-.51-1.53v-3.62h1.1v3.45c0,.43,.09,.75,.27,.96,.18,.21,.46,.32,.85,.32,.57,0,.96-.17,1.18-.5,.22-.33,.33-.81,.33-1.44v-2.8h1.09Z"/><path class="cls-1" d="M215.34,37.16c.67,0,1.21,.24,1.61,.72,.4,.48,.61,1.19,.61,2.14s-.21,1.65-.62,2.14c-.41,.49-.95,.73-1.61,.73-.42,0-.76-.08-1.03-.23-.27-.15-.48-.34-.63-.55h-.07c.01,.12,.03,.27,.05,.44,.02,.17,.03,.32,.03,.45v2.25h-1.09v-7.98h.88l.15,.74h.05c.16-.23,.37-.43,.63-.59,.26-.16,.61-.25,1.04-.25Zm-.26,.89c-.51,0-.88,.15-1.09,.44-.21,.29-.32,.75-.33,1.35v.16c0,.64,.1,1.13,.31,1.48s.58,.51,1.13,.51c.45,0,.79-.18,1-.55s.33-.85,.33-1.45-.11-1.08-.33-1.42c-.22-.35-.56-.52-1.02-.52Z"/><path class="cls-1" d="M221.7,37.16c.67,0,1.21,.24,1.61,.72,.4,.48,.61,1.19,.61,2.14s-.21,1.65-.62,2.14c-.41,.49-.95,.73-1.61,.73-.42,0-.76-.08-1.03-.23-.27-.15-.48-.34-.63-.55h-.07c.01,.12,.03,.27,.05,.44,.02,.17,.03,.32,.03,.45v2.25h-1.09v-7.98h.88l.15,.74h.05c.16-.23,.37-.43,.63-.59,.26-.16,.61-.25,1.04-.25Zm-.26,.89c-.51,0-.88,.15-1.09,.44-.21,.29-.32,.75-.33,1.35v.16c0,.64,.1,1.13,.31,1.48s.58,.51,1.13,.51c.45,0,.79-.18,1-.55s.33-.85,.33-1.45-.11-1.08-.33-1.42c-.22-.35-.56-.52-1.02-.52Z"/><path class="cls-1" d="M230.16,40.02c0,.92-.24,1.62-.71,2.12-.47,.5-1.11,.75-1.91,.75-.5,0-.94-.11-1.33-.33s-.69-.55-.91-.97c-.22-.43-.33-.95-.33-1.56,0-.92,.23-1.62,.7-2.12,.46-.5,1.1-.74,1.91-.74,.51,0,.95,.11,1.34,.33,.39,.22,.69,.54,.91,.97,.22,.42,.33,.94,.33,1.56Zm-4.07,0c0,.62,.12,1.11,.35,1.46,.24,.35,.61,.52,1.12,.52s.89-.17,1.12-.52c.24-.35,.35-.83,.35-1.46s-.12-1.11-.35-1.45c-.24-.34-.61-.51-1.13-.51s-.88,.17-1.12,.51-.35,.82-.35,1.45Z"/><path class="cls-1" d="M234.26,37.16c.22,0,.42,.02,.6,.05l-.11,1.01c-.18-.05-.36-.07-.55-.07-.28,0-.54,.07-.78,.21s-.43,.33-.58,.59c-.15,.26-.22,.57-.22,.93v2.91h-1.09v-5.52h.86l.14,.98h.04c.17-.29,.4-.55,.69-.76,.29-.21,.62-.32,.99-.32Z"/><path class="cls-1" d="M237.88,42.01c.31,0,.58-.04,.83-.13v.82c-.12,.05-.27,.1-.47,.14-.2,.04-.4,.06-.59,.06-.3,0-.58-.05-.83-.15-.25-.1-.45-.28-.6-.53s-.23-.61-.23-1.06v-3.05h-.77v-.49l.81-.41,.38-1.17h.67v1.24h1.58v.83h-1.58v3.03c0,.3,.07,.52,.22,.67,.15,.14,.34,.21,.58,.21Z"/></g></g></svg>